<?xml version="1.0" standalone="no"?><!DOCTYPE svg PUBLIC "-//W3C//DTD SVG 1.1//EN" "http://www.w3.org/Graphics/SVG/1.1/DTD/svg11.dtd" ><svg xmlns="http://www.w3.org/2000/svg"><metadata>Generated by Glyphter</metadata><defs><font id="zozo" horiz-adv-x="0"><font-face units-per-em="1024" ascent="1024" descent="0" font-family="zozo" font-weight="normal" /><missing-glyph horiz-adv-x="0" /><glyph unicode="&#x0041;" d="M750.277,843.121C750.277,843.121,750.425,861.591,750.425,861.591C750.562,878.883,749.847,896.15,748.349,913.345C748.349,913.345,686.866,913.345,686.866,913.345C695.299,880.925,719.252,854.709,750.277,843.121C750.277,843.121,750.277,843.121,750.277,843.121M741.336,964.907C739.662,973.975,737.812,983.013,735.677,991.995C735.677,991.995,732.69,1004.577,732.69,1004.577C729.985,1015.963,719.816,1024,708.114,1024C708.114,1024,316.334,1024,316.334,1024C304.632,1024,294.464,1015.963,291.762,1004.581C291.762,1004.581,288.771,991.985,288.771,991.985C286.636,983.006,284.787,973.972,283.113,964.907C283.113,964.907,741.336,964.907,741.336,964.907C741.336,964.907,741.336,964.907,741.336,964.907M634.211,913.342C634.211,913.342,538.008,913.342,538.008,913.342C538.008,913.342,538.008,820.24,538.008,820.24C538.008,805.997,526.468,794.457,512.226,794.457C497.984,794.457,486.443,805.997,486.443,820.24C486.443,820.24,486.443,913.342,486.443,913.342C486.443,913.342,390.172,913.342,390.172,913.342C379.883,852.571,333.894,803.811,274.587,789.452C274.587,789.452,280.631,25.057,280.631,25.057C280.741,11.186,292.016,0,305.887,0C305.887,0,440.386,0,440.386,0C453.775,0,464.841,10.45,465.601,23.82C465.601,23.82,505.584,724.563,505.584,724.563C505.784,728.066,508.682,730.802,512.188,730.802C515.695,730.802,518.592,728.066,518.792,724.563C518.792,724.563,558.775,23.82,558.775,23.82C559.538,10.45,570.601,0,583.994,0C583.994,0,718.489,0,718.489,0C732.36,0,743.635,11.186,743.745,25.057C743.745,25.057,749.847,789.442,749.847,789.442C690.517,803.783,644.504,852.55,634.211,913.342C634.211,913.342,634.211,913.342,634.211,913.342M337.517,913.342C337.517,913.342,276.096,913.342,276.096,913.342C274.594,896.15,273.879,878.886,274.017,861.601C274.017,861.601,274.164,843.145,274.164,843.145C305.162,854.743,329.088,880.945,337.517,913.342C337.517,913.342,337.517,913.342,337.517,913.342" class="zozo-trousers"/><glyph unicode="&#x0042;" d="M796.504,74.108C809.959,84.462,821.357,85.49,834.812,85.49C848.258,85.49,855.52,92.752,855.52,107.235C855.52,121.733,880.356,108.28,872.066,127.942C863.776,147.605,834.81,203.505,818.247,252.167C801.702,300.814,777.892,396.048,758.212,442.611C738.557,489.193,628.831,680.684,612.284,723.133C595.721,765.578,634.398,842.164,634.398,842.164C634.398,842.164,647.313,914.357,649.651,923.297C650.508,926.573,647.64,930.161,643.708,933.412C648.676,936.568,652.179,941.864,652.179,948.177C652.179,950.729,651.589,953.131,650.636,955.311C652.786,958.245,654.312,961.683,654.312,965.605C654.312,965.656,654.276,965.712,654.276,965.763C668.235,966.498,663.175,971.899,681.878,982.685C702.063,994.336,683.436,991.229,684.996,1003.641C686.554,1016.06,678.015,1017.614,672.578,1023.057C667.139,1028.487,660.931,1016.844,660.931,1016.844C629.113,1018.411,655.5,992.787,639.972,995.056C632.684,996.127,630.68,989.65,632.366,982.542C624.598,980.575,618.751,973.895,618.751,965.575C618.751,963.028,619.34,960.626,620.291,958.446C618.15,955.518,616.626,952.075,616.626,948.143C616.626,948.01,616.684,947.912,616.684,947.775C612.591,948.128,608.317,946.457,606.041,938.919C606.041,938.919,594.146,946.521,588.955,932.899C588.955,932.899,571.877,933.751,569.292,918.734C569.292,918.734,522.224,919.711,512.374,906.405C502.531,919.711,455.448,918.734,455.448,918.734C452.871,933.751,435.789,932.899,435.789,932.899C430.604,946.538,418.707,938.919,418.707,938.919C416.425,946.454,412.146,948.109,408.062,947.775C408.062,947.912,408.126,948.01,408.126,948.143C408.126,952.073,406.594,955.499,404.448,958.446C405.425,960.643,405.995,963.028,405.995,965.575C405.995,973.895,400.125,980.575,392.391,982.505C394.085,989.62,392.087,996.097,384.785,995.014C369.271,992.736,395.656,1018.351,363.833,1016.814C363.833,1016.814,357.624,1028.453,352.19,1023.023C346.751,1017.584,338.217,1016.043,339.771,1003.607C341.337,991.197,322.693,994.293,342.876,982.655C361.589,971.865,356.549,966.464,370.492,965.729C370.492,965.682,370.462,965.622,370.462,965.575C370.462,961.664,371.981,958.228,374.131,955.276C373.163,953.075,372.59,950.699,372.59,948.143C372.59,941.834,376.08,936.534,381.06,933.377C377.121,930.127,374.251,926.539,375.104,923.263C377.454,914.344,390.356,842.13,390.356,842.13C390.356,842.13,429.048,765.527,412.482,723.095C395.928,680.65,286.207,489.157,266.547,442.577C246.875,396.011,223.07,300.761,206.516,252.133C189.96,203.469,160.968,147.588,152.693,127.907C144.403,108.252,169.249,121.699,169.249,107.199C169.249,92.718,176.503,85.464,189.96,85.464C203.411,85.464,214.806,84.428,228.255,74.074C241.714,63.717,254.126,54.41,270.708,57.509C287.264,60.618,350.412,43.028,355.577,30.609C360.744,18.191,412.499,-12.71,436.308,6.8C457.051,23.79,501.302,28.459,512.393,29.374C523.483,28.457,567.736,23.79,588.478,6.8C612.288,-12.71,664.04,18.191,669.205,30.609C674.36,43.028,737.522,60.618,754.087,57.509C770.632,54.427,783.049,63.754,796.504,74.108C796.504,74.108,796.504,74.108,796.504,74.108M634.076,977.808C636.877,971.852,642.109,966.691,649.183,965.93C649.183,965.814,649.268,965.714,649.268,965.577C649.268,963.414,648.591,961.487,647.623,959.694C644.377,963.434,639.726,965.913,634.392,965.913C630.622,965.913,627.31,964.47,624.422,962.44C624.166,963.464,623.788,964.457,623.788,965.56C623.788,971.736,628.259,976.635,634.076,977.808C634.076,977.808,634.076,977.808,634.076,977.808M644.334,955.764C642.133,954.033,639.53,952.846,636.514,952.846C632.405,952.846,628.917,954.928,626.587,957.958C628.765,959.694,631.383,960.884,634.39,960.884C638.485,960.884,641.989,958.803,644.334,955.764C644.334,955.764,644.334,955.764,644.334,955.764M623.275,954.02C626.538,950.273,631.188,947.794,636.514,947.794C640.299,947.794,643.597,949.241,646.492,951.267C646.757,950.243,647.136,949.258,647.136,948.145C647.136,942.935,643.958,938.468,639.47,936.502C633.338,940.599,626.752,943.58,626.752,943.58C626.752,943.58,624.773,945.146,622.016,946.38C621.922,946.989,621.657,947.51,621.657,948.128C621.657,950.316,622.332,952.24,623.275,954.02C623.275,954.02,623.275,954.02,623.275,954.02M375.488,965.577C375.488,965.701,375.561,965.812,375.561,965.93C382.626,966.708,387.877,971.852,390.677,977.808C396.475,976.635,400.958,971.736,400.958,965.577C400.958,964.468,400.591,963.479,400.319,962.457C397.432,964.468,394.13,965.93,390.354,965.93C385.022,965.93,380.369,963.444,377.119,959.711C376.179,961.489,375.488,963.414,375.488,965.577C375.488,965.577,375.488,965.577,375.488,965.577M398.159,957.958C395.829,954.928,392.339,952.846,388.23,952.846C385.24,952.846,382.611,954.033,380.423,955.764C382.757,958.803,386.246,960.884,390.356,960.884C393.359,960.884,395.996,959.694,398.159,957.958C398.159,957.958,398.159,957.958,398.159,957.958M402.734,946.38C399.982,945.129,397.99,943.58,397.99,943.58C397.99,943.58,391.412,940.599,385.285,936.502C380.797,938.466,377.621,942.932,377.621,948.145C377.621,949.258,377.997,950.243,378.258,951.267C381.149,949.258,384.449,947.794,388.228,947.794C393.558,947.794,398.204,950.273,401.467,954.02C402.414,952.24,403.085,950.29,403.085,948.128C403.087,947.527,402.826,946.989,402.734,946.38C402.734,946.38,402.734,946.38,402.734,946.38" class="zozo-dress"/><glyph unicode="&#x0043;" d="M1009.78,213.112C964.4,223.187,815.266,213.112,815.266,213.112C815.266,213.112,860.645,313.249,845.524,319.739C830.403,326.228,756.907,356.47,756.907,356.47C756.907,356.47,674.795,213.112,674.795,213.112C674.795,213.112,588.335,213.112,588.335,213.112C994.642,733.232,231.757,816.821,231.757,816.821C241.566,950.088,203.141,967.383,174.958,963.117C174.958,963.117,147.488,989.093,147.488,989.093C147.488,989.093,100.88,939.78,100.88,939.78C99.917,939.299,98.971,938.535,98.125,937.456C88.747,925.439,80.946,912.559,74.074,898.965C71.003,892.89,75.435,887.264,80.498,886.102C-14.544,781.948,-16.535,711.97,28.612,574.736C82.639,410.481,71.833,43.08,71.833,43.08C71.833,43.08,117.213,43.08,117.213,43.08C117.213,43.08,52.38,682.791,244.737,514.219C437.076,345.648,404.66,190.04,471.667,97.107C538.657,4.174,791.53,43.08,791.53,43.08C791.53,43.08,977.38,103.597,977.38,103.597C977.364,103.597,1055.176,203.004,1009.78,213.112C1009.78,213.112,1009.78,213.112,1009.78,213.112M95.618,902.351C100.067,910.285,104.764,918.07,110.358,925.224C110.407,925.273,110.407,925.34,110.441,925.39C110.441,925.39,114.706,921.34,114.706,921.34C108.084,914.916,101.627,908.526,95.618,902.351C95.618,902.351,95.618,902.351,95.618,902.351M210.146,626.008C210.146,626.008,205.83,749.233,220.951,764.337C236.089,779.442,709.386,638.971,629.416,496.327C549.446,353.682,504.066,353.682,482.456,293.181C482.456,293.181,354.948,552.511,210.146,626.008C210.146,626.008,210.146,626.008,210.146,626.008" class="zozo-high-heel"/><glyph unicode="&#x0044;" d="M984.514,779.443C957.844,806.107,925.675,819.443,887.983,819.443C887.983,819.443,768.515,819.443,768.515,819.443C768.515,819.443,741.32,891.972,741.32,891.972C734.562,909.392,722.212,924.417,704.247,937.045C686.289,949.667,667.891,955.983,649.044,955.983C649.044,955.983,375.971,955.983,375.971,955.983C357.126,955.983,338.724,949.667,320.766,937.045C302.809,924.417,290.457,909.392,283.7,891.972C283.7,891.972,256.501,819.443,256.501,819.443C256.501,819.443,137.034,819.443,137.034,819.443C99.339,819.443,67.167,806.107,40.497,779.443C13.832,752.776,0.5,720.601,0.5,682.909C0.5,682.909,0.5,205.038,0.5,205.038C0.5,167.344,13.832,135.165,40.497,108.506C67.167,81.836,99.34,68.5,137.034,68.5C137.034,68.5,887.97,68.5,887.97,68.5C925.661,68.5,957.829,81.836,984.501,108.506C1011.164,135.165,1024.5,167.344,1024.5,205.038C1024.5,205.038,1024.5,682.909,1024.5,682.909C1024.507,720.601,1011.171,752.776,984.514,779.443C984.514,779.443,984.514,779.443,984.514,779.443M681.304,275.166C634.548,228.409,578.286,205.025,512.503,205.025C446.719,205.025,390.461,228.409,343.702,275.166C296.943,321.916,273.568,378.191,273.568,443.96C273.568,509.749,296.95,566.005,343.702,612.764C390.456,659.523,446.721,682.898,512.503,682.898C578.284,682.898,634.548,659.518,681.304,612.764C728.061,566.01,751.44,509.749,751.44,443.96C751.44,378.191,728.063,321.922,681.304,275.166C681.304,275.166,681.304,275.166,681.304,275.166M512.503,597.573C470.19,597.573,434.011,582.55,403.965,552.501C373.92,522.455,358.897,486.282,358.897,443.96C358.897,401.654,373.92,365.475,403.965,335.429C434.011,305.389,470.188,290.367,512.503,290.367C554.81,290.367,590.993,305.389,621.038,335.429C651.084,365.475,666.109,401.652,666.109,443.96C666.109,486.28,651.084,522.453,621.038,552.501C590.995,582.548,554.81,597.573,512.503,597.573C512.503,597.573,512.503,597.573,512.503,597.573" class="zozo-camera"/><glyph unicode="&#x0045;" d="M1021.599,646.849C1021.599,831.676,875.545,981.472,695.238,981.472C675.463,981.472,656.041,979.707,637.254,976.176C626.166,974.127,615.219,971.302,604.555,968.124C604.555,968.124,695.238,646.778,695.238,646.778C695.238,646.778,1021.599,646.849,1021.599,646.849C1021.599,646.849,1021.599,646.849,1021.599,646.849C1021.599,646.849,1021.599,646.849,1021.599,646.849M299.382,600.659C297.899,626.155,290.2,667.118,259.62,705.397C227.273,745.936,177.976,772.703,113.283,785.84C105.938,794.456,95.062,799.965,82.844,799.965C82.844,799.965,40.398,799.965,40.398,799.965C18.151,799.965,0,781.885,0,759.496C0,737.108,18.08,719.098,40.398,719.098C40.398,719.098,82.844,719.098,82.844,719.098C92.731,719.098,101.63,722.771,108.622,728.633C156.153,718.039,191.678,698.617,214.49,670.579C235.112,645.154,240.974,617.892,242.458,600.589C242.458,600.589,240.833,600.589,240.833,600.589C240.833,423.672,416.126,280.161,632.452,280.161C848.707,280.161,1024,423.601,1024,600.589C1024,600.589,299.382,600.589,299.382,600.659C299.382,600.659,299.382,600.659,299.382,600.659M478.135,266.036C416.62,266.036,366.617,216.033,366.617,154.518C366.617,93.003,416.62,43,478.135,43C539.65,43,589.653,93.003,589.653,154.518C589.653,216.033,539.65,266.036,478.135,266.036C478.135,266.036,478.135,266.036,478.135,266.036M478.135,99.924C448.049,99.924,423.541,124.431,423.541,154.447C423.541,184.463,448.049,209.041,478.135,209.041C508.222,209.041,532.729,184.463,532.729,154.447C532.729,124.431,508.222,99.924,478.135,99.924C478.135,99.924,478.135,99.924,478.135,99.924M778.929,266.036C717.414,266.036,667.341,216.033,667.341,154.518C667.341,93.003,717.414,43,778.929,43C840.374,43,890.447,93.003,890.447,154.518C890.447,216.033,840.374,266.036,778.929,266.036C778.929,266.036,778.929,266.036,778.929,266.036M778.929,99.924C748.772,99.924,724.336,124.431,724.336,154.447C724.336,184.463,748.843,209.041,778.929,209.041C809.016,209.041,833.452,184.463,833.452,154.447C833.452,124.431,809.016,99.924,778.929,99.924C778.929,99.924,778.929,99.924,778.929,99.924" class="zozo-baby-troller"/><glyph unicode="&#x0046;" d="M1006.966,554.923C1006.966,554.923,554.922,1006.921,554.922,1006.921C531.426,1030.415,493.384,1030.221,470.078,1006.921C470.078,1006.921,18.034,554.921,18.034,554.921C-5.345,531.543,-5.345,493.456,18.034,470.076C41.53,446.58,79.572,446.77,102.878,470.076C102.878,470.076,512.5,877.657,512.5,877.657C512.5,877.657,922.122,470.078,922.122,470.078C945.586,446.618,983.502,446.618,1006.966,470.078C1030.345,493.456,1030.345,531.543,1006.966,554.923C1006.966,554.923,1006.966,554.923,1006.966,554.923M392.5,422.5C392.5,422.5,362.5,422.5,362.5,422.5C362.5,422.5,362.5,392.5,362.5,392.5C362.5,342.872,402.872,302.5,452.5,302.5C452.5,302.5,482.5,302.5,482.5,302.5C482.5,314.362,482.5,320.844,482.5,332.5C482.5,382.128,442.128,422.5,392.5,422.5C392.5,422.5,392.5,422.5,392.5,422.5M632.5,422.5C582.872,422.5,542.5,382.128,542.5,332.5C542.5,320.832,542.5,314.362,542.5,302.5C542.5,302.5,572.5,302.5,572.5,302.5C622.128,302.5,662.5,342.87,662.5,392.5C662.5,392.5,662.5,422.5,662.5,422.5C662.5,422.5,632.5,422.5,632.5,422.5C632.5,422.5,632.5,422.5,632.5,422.5M874.5,962.501C874.5,962.501,692.5,962.501,692.5,962.501C689.456,962.501,686.692,961.611,683.928,960.773C683.928,960.773,904.5,742.227,904.5,742.227C904.5,742.227,904.5,932.501,904.5,932.501C904.5,949.083,891.082,962.501,874.5,962.501C874.5,962.501,874.5,962.501,874.5,962.501M879.69,427.682C879.69,427.682,879.686,427.684,879.686,427.684C879.686,427.684,512.5,792.813,512.5,792.813C512.5,792.813,145.286,427.656,145.286,427.656C145.286,427.656,120.5,402.874,120.5,402.874C120.5,402.874,120.5,30.5,120.5,30.5C120.5,13.918,133.918,0.5,150.5,0.5C150.5,0.5,482.5,0.5,482.5,0.5C482.5,0.5,482.5,242.5,482.5,242.5C482.5,242.5,452.5,242.5,452.5,242.5C369.794,242.5,302.5,309.794,302.5,392.5C302.5,392.5,302.5,452.5,302.5,452.5C302.5,469.082,315.918,482.5,332.5,482.5C332.5,482.5,392.5,482.5,392.5,482.5C441.74,482.5,485.136,458.33,512.5,421.574C539.864,458.33,583.26,482.5,632.5,482.5C632.5,482.5,692.5,482.5,692.5,482.5C709.082,482.5,722.5,469.082,722.5,452.5C722.5,452.5,722.5,392.5,722.5,392.5C722.5,309.794,655.206,242.5,572.5,242.5C572.5,242.5,542.5,242.5,542.5,242.5C542.5,242.5,542.5,0.5,542.5,0.5C542.5,0.5,874.5,0.5,874.5,0.5C891.082,0.5,904.5,13.918,904.5,30.5C904.5,30.5,904.5,402.874,904.5,402.874C904.5,402.874,879.69,427.682,879.69,427.682C879.69,427.682,879.69,427.682,879.69,427.682" class="zozo-home"/><glyph unicode="&#x0047;" d="M507.841,256.418C507.841,256.418,516.159,256,516.159,256C793.659,256,760.366,436.37,1024,552.927C868.603,552.927,704.868,768.309,613.287,768.309C521.705,768.309,516.159,675.651,516.159,675.651C516.159,675.651,514.518,667.661,514.518,667.661C514.518,667.661,502.295,768.292,410.713,768.292C319.132,768.292,155.397,553.767,0,553.767C263.636,437.211,230.324,256.418,507.841,256.418C507.841,256.418,507.841,256.418,507.841,256.418M787.44,548.057C679.219,521.695,643.828,462.02,516.525,462.02C394.769,462.02,288.628,548.057,245.611,548.057C245.592,548.057,662.545,543.203,787.44,548.057C787.44,548.057,787.44,548.057,787.44,548.057" class="zozo-lips"/><glyph unicode="&#x0048;" d="M998.926,930.901C982.216,947.61,962.137,955.974,938.661,955.974C938.661,955.974,85.333,955.974,85.333,955.974C61.867,955.974,41.784,947.61,25.063,930.901C8.352,914.186,0,894.105,0,870.637C0,870.637,0,290.367,0,290.367C0,266.893,8.352,246.814,25.063,230.095C41.784,213.386,61.867,205.038,85.333,205.038C85.333,205.038,375.471,205.038,375.471,205.038C375.471,191.53,372.624,177.65,366.934,163.439C361.248,149.215,355.558,136.776,349.868,126.114C344.185,115.438,341.34,107.626,341.34,102.651C341.34,93.408,344.716,85.391,351.472,78.653C358.225,71.889,366.226,68.5,375.471,68.5C375.471,68.5,648.537,68.5,648.537,68.5C657.781,68.5,665.784,71.887,672.537,78.653C679.299,85.389,682.675,93.406,682.675,102.651C682.675,107.261,679.824,115.001,674.136,125.843C668.446,136.679,662.756,149.316,657.073,163.702C651.383,178.104,648.538,191.881,648.538,205.038C648.538,205.038,938.676,205.038,938.676,205.038C962.139,205.038,982.218,213.386,998.927,230.095C1015.644,246.812,1024,266.892,1024,290.367C1024,290.367,1024,870.637,1024,870.637C1024.006,894.105,1015.642,914.186,998.926,930.901C998.926,930.901,998.926,930.901,998.926,930.901M955.731,426.903C955.731,422.279,954.044,418.286,950.667,414.903C947.286,411.533,943.285,409.846,938.661,409.846C938.661,409.846,85.333,409.846,85.333,409.846C80.714,409.846,76.712,411.533,73.335,414.903C69.959,418.297,68.269,422.279,68.269,426.903C68.269,426.903,68.269,870.637,68.269,870.637C68.269,875.26,69.954,879.258,73.335,882.635C76.714,886.007,80.715,887.701,85.333,887.701C85.333,887.701,938.674,887.701,938.674,887.701C943.29,887.701,947.299,886.012,950.667,882.635C954.044,879.256,955.731,875.258,955.731,870.637C955.731,870.637,955.731,426.903,955.731,426.903C955.731,426.903,955.731,426.903,955.731,426.903C955.731,426.903,955.731,426.903,955.731,426.903" class="zozo-monitor"/><glyph unicode="&#x0049;" d="M986.073,562.471C967.276,568.756,836.525,597.331,836.525,597.331C836.525,597.331,594.145,735.161,565.057,735.161C535.968,735.161,336.432,735.072,336.432,735.072C287.68,735.072,246.938,697.922,199.765,654.91C177.533,634.645,152.994,612.341,125.927,592.502C125.927,592.502,25.118,579.098,25.118,579.098C10.551,574.453,0,560.823,0,544.718C0,544.718,0,429.217,0,429.217C0,409.284,16.156,393.125,36.091,393.125C36.091,393.125,105.363,393.125,105.363,393.125C110.394,335.148,159.162,289.5,218.421,289.5C277.678,289.5,326.448,335.15,331.48,393.123C331.48,393.123,662.25,393.123,662.25,393.123C667.281,335.147,716.048,289.5,775.308,289.5C834.568,289.5,883.335,335.15,888.366,393.123C888.366,393.123,945.277,393.123,945.277,393.123C990.37,393.123,1012.404,412.599,1017.937,430.88C1031.929,477.143,1021.864,550.504,986.073,562.471C986.073,562.471,986.073,562.471,986.073,562.471M218.421,344.207C185.995,344.207,159.612,370.587,159.612,403.013C159.612,435.44,185.991,461.823,218.421,461.823C250.848,461.823,277.228,435.443,277.228,403.013C277.229,370.587,250.848,344.207,218.421,344.207C218.421,344.207,218.421,344.207,218.421,344.207M436.719,597.327C436.719,597.327,239.492,597.327,239.492,597.327C253.758,608.598,266.948,620.561,279.098,631.636C311.033,660.753,338.614,685.901,371.616,685.901C371.616,685.901,401.483,685.915,436.721,685.93C436.721,685.93,436.721,597.327,436.721,597.327C436.721,597.327,436.719,597.327,436.719,597.327M484.745,685.948C509.154,685.957,530.912,685.963,541.828,685.963C569.009,685.963,679.256,621.94,720.633,597.326C720.633,597.326,484.745,597.326,484.745,597.326C484.745,597.326,484.745,685.948,484.745,685.948C484.745,685.948,484.745,685.948,484.745,685.948C484.745,685.948,484.745,685.948,484.745,685.948M775.306,344.207C742.88,344.207,716.5,370.587,716.5,403.013C716.5,435.44,742.88,461.823,775.306,461.823C807.733,461.823,834.116,435.443,834.116,403.013C834.116,370.587,807.733,344.207,775.306,344.207C775.306,344.207,775.306,344.207,775.306,344.207" class="zozo-car"/><glyph unicode="&#x004a;" d="M727.858,1024C727.858,1024,297.018,1024,297.018,1024C255.785,1024,222.5,990.566,222.5,949.407C222.5,949.407,222.5,74.518,222.5,74.518C222.5,33.397,255.785,0,297.018,0C297.018,0,727.858,0,727.858,0C769.016,0,802.376,33.397,802.376,74.518C802.376,74.518,802.376,949.407,802.376,949.407C802.376,990.566,769.016,1024,727.858,1024C727.858,1024,727.858,1024,727.858,1024M406.127,978.7C406.127,978.7,618.823,978.7,618.823,978.7C624.197,978.7,628.563,970.677,628.563,960.751C628.563,950.825,624.197,942.765,618.823,942.765C618.823,942.765,406.127,942.765,406.127,942.765C400.717,942.765,396.426,950.825,396.426,960.751C396.426,970.677,400.717,978.7,406.127,978.7C406.127,978.7,406.127,978.7,406.127,978.7M512.475,73.623C486.243,73.623,464.899,94.967,464.899,121.237C464.899,147.506,486.243,168.776,512.475,168.776C538.633,168.776,559.977,147.506,559.977,121.237C559.977,94.967,538.633,73.623,512.475,73.623C512.475,73.623,512.475,73.623,512.475,73.623M746.553,236.652C746.553,236.652,278.361,236.652,278.361,236.652C278.361,236.652,278.361,898.136,278.361,898.136C278.361,898.136,746.553,898.136,746.553,898.136C746.553,898.136,746.553,236.652,746.553,236.652C746.553,236.652,746.553,236.652,746.553,236.652" class="zozo-phone"/><glyph unicode="&#x004b;" d="M772.009,842.592C770.854,843.291,699.69,870.619,699.69,870.619C699.69,870.619,678.366,1004.428,678.366,1004.428C676.572,1015.703,666.848,1024,655.428,1024C655.428,1024,340.198,1024,340.198,1024C328.778,1024,319.053,1015.703,317.255,1004.428C317.255,1004.428,295.931,870.619,295.931,870.619C295.931,870.619,224.768,843.291,223.604,842.592C189.74,830.618,164.5,803.823,164.5,767.367C164.5,767.367,164.5,255.793,164.5,255.793C164.5,218.162,194.176,191.512,226.873,179.776C227.005,179.721,227.133,179.644,227.269,179.588C227.269,179.588,295.931,153.381,295.931,153.381C295.931,153.381,317.255,19.572,317.255,19.572C319.053,8.301,328.778,0,340.198,0C340.198,0,655.428,0,655.428,0C666.848,0,676.572,8.297,678.371,19.572C678.371,19.572,699.694,153.381,699.694,153.381C699.694,153.381,768.608,179.725,768.744,179.776C798.574,188.541,831.117,218.162,831.117,255.793C831.117,255.793,831.117,396.915,831.117,396.915C831.117,396.915,860.03,396.915,860.03,396.915C860.03,396.915,860.03,484.979,860.03,484.979C860.03,484.979,831.117,484.979,831.117,484.979C831.117,484.979,831.117,576.917,831.117,576.917C831.117,576.917,860.03,576.917,860.03,576.917C860.03,576.917,860.03,664.981,860.03,664.981C860.03,664.981,831.117,664.981,831.117,664.981C831.117,664.981,831.117,767.363,831.117,767.363C831.117,803.823,806.385,827.869,772.009,842.592C772.009,842.592,772.009,842.592,772.009,842.592M756.186,298.636C756.186,273.576,735.813,253.202,710.752,253.202C710.752,253.202,284.869,253.202,284.869,253.202C259.808,253.202,239.435,273.576,239.435,298.636C239.435,298.636,239.435,724.52,239.435,724.52C239.435,749.581,259.808,769.954,284.869,769.954C284.869,769.954,710.748,769.954,710.748,769.954C735.809,769.954,756.182,749.581,756.182,724.52C756.182,724.52,756.182,298.636,756.182,298.636C756.182,298.636,756.186,298.636,756.186,298.636M600.346,470.968C588.679,435.556,561.019,400.874,528.761,400.874C518.883,400.874,509.478,403.396,500.772,407.658C492.092,403.396,482.67,400.874,472.793,400.874C429.979,400.874,395.275,461.938,395.275,504.752C395.275,579.806,469.124,579.806,500.777,552.099C516.88,566.204,543.914,573.094,566.575,566.609C556.395,556.433,550.088,542.375,550.088,526.838C550.084,497.814,572.098,473.934,600.346,470.968C600.346,470.968,600.346,470.968,600.346,470.968M455.986,587.966C442.111,601.841,435.911,620.476,437.3,638.616C455.453,640.014,474.08,633.814,487.954,619.939C501.846,606.047,508.029,587.421,506.64,569.28C488.496,567.883,469.861,574.083,455.986,587.966C455.986,587.966,455.986,587.966,455.986,587.966" class="zozo-watch"/><glyph unicode="&#x004c;" d="M409.6,77C409.6,77,409.6,384.2,409.6,384.2C409.6,384.2,614.4,384.2,614.4,384.2C614.4,384.2,614.4,77,614.4,77C614.4,77,870.4,77,870.4,77C870.4,77,870.4,486.6,870.4,486.6C870.4,486.6,1024,486.6,1024,486.6C1024,486.6,512,947.4,512,947.4C512,947.4,0,486.6,0,486.6C0,486.6,153.6,486.6,153.6,486.6C153.6,486.6,153.6,77,153.6,77C153.6,77,409.6,77,409.6,77" class="zozo-home-button"/><glyph unicode="&#x004d;" d="M766.11,709.176C735.511,721.442,726.67,728.86,726.67,742.254C726.67,752.974,734.789,765.497,757.679,765.497C777.926,765.497,793.453,757.513,793.592,757.444C795.225,756.573,797.058,756.108,798.874,756.108C803.304,756.108,807.223,758.789,808.848,762.939C808.848,762.939,814.41,777.157,814.41,777.157C816.346,782.337,813.408,786.851,809.662,788.47C797.197,793.896,772.835,798.096,772.586,798.139C772.194,798.208,770.829,798.5,770.829,800.096C770.829,800.096,770.751,820.72,770.751,820.72C770.751,826.931,765.564,831.988,759.197,831.988C759.197,831.988,749.22,831.988,749.22,831.988C742.859,831.988,737.675,826.934,737.675,820.718C737.675,820.718,737.701,799.034,737.701,799.034C737.701,797.371,735.9,796.65,735.242,796.497C704.49,789.172,685.271,766.645,685.271,738.231C685.271,702.809,714.551,686.802,746.166,674.787C771.441,664.865,781.75,654.804,781.75,640.047C781.75,623.988,767.149,612.772,746.23,612.772C728.367,612.772,704.193,624.095,703.953,624.21C702.406,624.943,700.767,625.313,699.082,625.313C694.481,625.313,690.475,622.531,688.873,618.221C688.873,618.221,683.563,603.843,683.563,603.843C681.675,598.474,684.581,594.116,688.302,592.177C703.148,584.445,731.877,579.913,733.156,579.714C733.499,579.665,735.248,579.05,735.248,577.452C735.248,577.452,735.248,555.863,735.248,555.863C735.248,549.652,740.434,544.595,746.804,544.595C746.804,544.595,757.114,544.595,757.114,544.595C763.486,544.595,768.673,549.649,768.673,555.863C768.673,555.863,768.673,578.583,768.673,578.583C768.673,580.707,770.24,580.895,770.563,580.973C803.324,588.332,823.504,612.302,823.504,642.399C823.495,673.313,806.328,693.288,766.11,709.176C766.11,709.176,766.11,709.176,766.11,709.176M753.229,959.074C603.679,959.074,482.455,837.835,482.455,688.295C482.455,538.751,603.679,417.515,753.229,417.515C902.772,417.515,1024,538.751,1024,688.295C1024,837.835,902.772,959.074,753.229,959.074C753.229,959.074,753.229,959.074,753.229,959.074M753.229,480.269C638.336,480.269,545.206,573.408,545.206,688.292C545.206,803.175,638.336,896.312,753.229,896.312C868.115,896.312,961.243,803.175,961.243,688.292C961.243,573.408,868.115,480.269,753.229,480.269C753.229,480.269,753.229,480.269,753.229,480.269M968.981,286.301C911.402,254.522,832.209,225.138,753.232,212.75C682.965,201.731,550.773,228.307,550.773,259.694C550.773,271.588,666.71,230.388,736.841,249.099C790.619,263.446,782.985,313.751,753.734,320.387C724.653,326.987,554.277,389.404,481.502,391.557C447.221,392.57,362.584,379.634,321.629,372.964C307.6,370.681,298.802,370.932,297.925,357.506C293.85,295.107,285.818,167.504,281.439,100.851C281.347,99.442,283.304,80.503,298.932,93.832C316.039,108.418,340.031,124.587,362.223,119.553C397.039,111.654,698.242,56.473,739.788,66.13C799.223,79.946,967.472,179.655,999.73,210.646C1049.73,258.692,1010.862,309.416,968.981,286.301C968.981,286.301,968.981,286.301,968.981,286.301M214.806,375.397C214.806,375.397,57.014,383.172,57.014,383.172C44.832,383.773,32.389,374.592,29.362,362.779C29.362,362.779,0.671,102.288,0.671,102.288C-2.354,90.472,5.144,80.417,17.332,79.946C17.332,79.946,192.205,79.964,192.205,79.964C204.396,79.493,215.127,89.058,216.062,101.22C216.062,101.22,235.266,352.195,235.266,352.195C236.196,364.355,226.989,374.797,214.806,375.397C214.806,375.397,214.806,375.397,214.806,375.397M121.912,114.473C97.816,114.473,78.285,134.007,78.285,158.101C78.285,182.197,97.819,201.728,121.912,201.728C146.006,201.728,165.54,182.194,165.54,158.101C165.54,134.004,146.009,114.473,121.912,114.473C121.912,114.473,121.912,114.473,121.912,114.473" class="zozo-give-money"/><glyph unicode="&#x004e;" d="M853.69,1024C853.69,1024,171.024,1024,171.024,1024C117.386,1024,73.5,980.114,73.5,926.476C73.5,926.476,73.5,243.81,73.5,243.81C73.5,190.171,117.386,146.286,171.024,146.286C171.024,146.286,366.071,146.286,366.071,146.286C366.071,146.286,512.357,0,512.357,0C512.357,0,658.643,146.286,658.643,146.286C658.643,146.286,853.69,146.286,853.69,146.286C907.329,146.286,951.214,190.171,951.214,243.81C951.214,243.81,951.214,926.476,951.214,926.476C951.214,980.114,907.329,1024,853.69,1024C853.69,1024,853.69,1024,853.69,1024M561.119,243.81C561.119,243.81,463.595,243.81,463.595,243.81C463.595,243.81,463.595,341.333,463.595,341.333C463.595,341.333,561.119,341.333,561.119,341.333C561.119,341.333,561.119,243.81,561.119,243.81C561.119,243.81,561.119,243.81,561.119,243.81M663.519,619.276C663.519,619.276,619.633,575.39,619.633,575.39C580.626,541.257,561.119,512,561.119,438.857C561.119,438.857,463.595,438.857,463.595,438.857C463.595,438.857,463.595,463.238,463.595,463.238C463.595,516.876,483.1,565.638,522.11,599.771C522.11,599.771,580.626,663.162,580.626,663.162C600.13,677.79,609.883,702.171,609.883,731.429C609.883,785.067,565.997,828.952,512.359,828.952C458.721,828.952,414.835,785.067,414.835,731.429C414.835,731.429,317.311,731.429,317.311,731.429C317.311,838.705,405.083,926.476,512.359,926.476C619.635,926.476,707.407,838.705,707.407,731.429C707.405,687.543,687.9,648.533,663.519,619.276C663.519,619.276,663.519,619.276,663.519,619.276" class="zozo-help-bubble"/><glyph unicode="&#x004f;" d="M640,1024C640,1024,640,768,640,768C640,768,896,768,896,768C896,768,640,1024,640,1024M640,704C604.736,704,576,732.736,576,768C576,768,576,1024,576,1024C576,1024,192,1024,192,1024C156.736,1024,128,995.264,128,960C128,960,128,64,128,64C128,28.672,156.736,0,192,0C192,0,832,0,832,0C867.328,0,896,28.672,896,64C896,64,896,704,896,704C896,704,640,704,640,704C640,704,640,704,640,704M384,128C384,128,256,128,256,128C256,128,256,320,256,320C256,320,384,320,384,320C384,320,384,128,384,128C384,128,384,128,384,128M576,128C576,128,448,128,448,128C448,128,448,448,448,448C448,448,576,448,576,448C576,448,576,128,576,128C576,128,576,128,576,128M768,128C768,128,640,128,640,128C640,128,640,576,640,576C640,576,768,576,768,576C768,576,768,128,768,128C768,128,768,128,768,128" class="zozo-profit-report"/><glyph unicode="&#x0050;" d="M672,960C672,960,602.496,960,602.496,960C589.312,997.248,553.728,1024,512,1024C470.272,1024,434.688,997.248,421.44,960C421.44,960,352,960,352,960C334.336,960,320,945.664,320,928C320,928,320,800,320,800C320,782.336,334.336,768,352,768C352,768,672,768,672,768C689.664,768,704,782.336,704,800C704,800,704,928,704,928C704,945.664,689.664,960,672,960C672,960,672,960,672,960M832,896C832,896,768,896,768,896C768,896,768,800,768,800C768,747.072,724.928,704,672,704C672,704,352,704,352,704C299.072,704,256,747.072,256,800C256,800,256,896,256,896C256,896,192,896,192,896C156.736,896,128,867.264,128,832C128,832,128,64,128,64C128,28.096,156.096,0,192,0C192,0,832,0,832,0C867.904,0,896,28.096,896,64C896,64,896,832,896,832C896,867.904,867.904,896,832,896C832,896,832,896,832,896M502.656,329.344C502.656,329.344,374.656,201.344,374.656,201.344C368.384,195.136,360.192,192,352,192C343.808,192,335.616,195.136,329.344,201.344C329.344,201.344,265.344,265.344,265.344,265.344C252.864,277.824,252.864,298.112,265.344,310.592C277.824,323.072,298.112,323.072,310.592,310.592C310.592,310.592,352,269.248,352,269.248C352,269.248,457.344,374.592,457.344,374.592C469.824,387.072,490.112,387.072,502.592,374.592C515.072,362.112,515.136,341.888,502.656,329.344C502.656,329.344,502.656,329.344,502.656,329.344M502.656,585.344C502.656,585.344,374.656,457.344,374.656,457.344C368.384,451.136,360.192,448,352,448C343.808,448,335.616,451.136,329.344,457.344C329.344,457.344,265.344,521.344,265.344,521.344C252.864,533.824,252.864,554.112,265.344,566.592C277.824,579.072,298.112,579.072,310.592,566.592C310.592,566.592,352,525.248,352,525.248C352,525.248,457.344,630.592,457.344,630.592C469.824,643.072,490.112,643.072,502.592,630.592C515.072,618.112,515.136,597.888,502.656,585.344C502.656,585.344,502.656,585.344,502.656,585.344M736,256C736,256,608,256,608,256C590.336,256,576,270.336,576,288C576,305.664,590.336,320,608,320C608,320,736,320,736,320C753.664,320,768,305.664,768,288C768,270.336,753.664,256,736,256C736,256,736,256,736,256M736,512C736,512,608,512,608,512C590.336,512,576,526.336,576,544C576,561.664,590.336,576,608,576C608,576,736,576,736,576C753.664,576,768,561.664,768,544C768,526.336,753.664,512,736,512C736,512,736,512,736,512" class="zozo-check-list"/><glyph unicode="&#x0051;" d="M934.368,599.343C934.368,599.343,534.991,998.778,534.991,998.778C511.437,1022.274,473.335,1021.996,450.089,998.808C426.711,975.37,426.711,937.314,450.089,913.906C450.089,913.906,849.524,514.499,849.524,514.499C872.924,491.099,910.966,491.099,934.368,514.499C957.832,537.963,957.832,575.883,934.368,599.343C934.368,599.343,934.368,599.343,934.368,599.343M420.459,858.69C420.459,858.69,417.453,843.622,417.453,843.622C396.279,737.705,344.819,637.083,275.217,555.529C275.217,555.529,492.511,338.235,492.511,338.235C574.055,407.823,673.292,460.665,779.212,481.865C779.212,481.865,794.308,484.871,794.308,484.871C794.308,484.871,420.459,858.69,420.459,858.69C420.459,858.69,420.459,858.69,420.459,858.69M235.379,510.521C235.379,510.521,86.872,362.045,86.872,362.045C51.782,326.954,51.636,269.986,86.872,234.75C86.872,234.75,171.717,149.906,171.717,149.906C206.807,114.816,263.775,114.672,299.011,149.906C299.011,149.906,447.503,298.398,447.503,298.398C447.503,298.398,235.379,510.521,235.379,510.521C235.379,510.521,235.379,510.521,235.379,510.521M256.591,277.17C244.873,265.452,225.887,265.452,214.169,277.17C202.451,288.888,202.451,307.874,214.169,319.592C214.169,319.592,256.591,362.015,256.591,362.015C268.309,373.733,287.295,373.733,299.013,362.015C310.731,350.297,310.731,331.31,299.013,319.592C299.013,319.592,256.591,277.17,256.591,277.17C256.591,277.17,256.591,277.17,256.591,277.17M572.761,133.942C572.761,133.942,613.571,174.752,613.571,174.752C648.81,209.984,648.694,266.952,613.573,302.014C613.573,302.014,583.261,332.348,583.261,332.348C566.507,321.094,550.507,308.866,534.951,295.818C534.951,295.818,571.151,259.564,571.151,259.564C582.841,247.934,582.923,229.006,571.151,217.172C571.151,217.172,529.667,175.688,529.667,175.688C529.667,175.688,468.703,234.754,468.703,234.754C468.703,234.754,383.855,149.906,383.855,149.906C383.855,149.906,519.969,18.012,519.969,18.012C543.197,-5.276,581.335,-5.408,604.783,18.042C628.192,41.45,628.192,79.506,604.783,102.916C604.783,102.916,572.761,133.942,572.761,133.942C572.761,133.942,572.761,133.942,572.761,133.942M693.958,1024.5C677.376,1024.5,663.958,1011.082,663.958,994.5C663.958,994.5,663.958,934.5,663.958,934.5C663.958,917.918,677.376,904.5,693.958,904.5C710.54,904.5,723.958,917.918,723.958,934.5C723.958,934.5,723.958,994.5,723.958,994.5C723.958,1011.082,710.54,1024.5,693.958,1024.5C693.958,1024.5,693.958,1024.5,693.958,1024.5M933.958,784.499C933.958,784.499,873.958,784.499,873.958,784.499C857.376,784.499,843.958,771.081,843.958,754.499C843.958,737.917,857.376,724.499,873.958,724.499C873.958,724.499,933.958,724.499,933.958,724.499C950.54,724.499,963.958,737.917,963.958,754.499C963.958,771.081,950.54,784.499,933.958,784.499C933.958,784.499,933.958,784.499,933.958,784.499M895.168,955.712C883.45,967.43,864.464,967.43,852.746,955.712C852.746,955.712,792.746,895.712,792.746,895.712C781.028,883.994,781.028,865.008,792.746,853.29C804.464,841.572,823.45,841.57,835.168,853.29C835.168,853.29,895.168,913.29,895.168,913.29C906.886,925.008,906.886,943.994,895.168,955.712C895.168,955.712,895.168,955.712,895.168,955.712" class="zozo-megaphone"/><glyph unicode="&#x0052;" d="M330.819,114.689C330.819,88.735,309.584,67.5,283.63,67.5C283.63,67.5,88.582,67.5,88.582,67.5C62.628,67.5,41.393,88.735,41.393,114.689C41.393,114.689,41.393,328.613,41.393,328.613C41.393,354.567,62.628,375.802,88.582,375.802C88.582,375.802,283.63,375.802,283.63,375.802C309.584,375.802,330.819,354.567,330.819,328.613C330.819,328.613,330.819,114.689,330.819,114.689C330.819,114.689,330.819,114.689,330.819,114.689M677.66,114.689C677.66,88.735,656.425,67.5,630.471,67.5C630.471,67.5,435.422,67.5,435.422,67.5C409.468,67.5,388.233,88.735,388.233,114.689C388.233,114.689,388.233,441.867,388.233,441.867C388.233,467.821,409.468,489.056,435.422,489.056C435.422,489.056,630.471,489.056,630.471,489.056C656.425,489.056,677.66,467.821,677.66,441.867C677.66,441.867,677.66,114.689,677.66,114.689C677.66,114.689,677.66,114.689,677.66,114.689M1024.5,114.689C1024.5,88.735,1003.265,67.5,977.311,67.5C977.311,67.5,782.262,67.5,782.262,67.5C756.308,67.5,735.073,88.735,735.073,114.689C735.073,114.689,735.073,567.705,735.073,567.705C735.073,593.659,756.308,614.894,782.262,614.894C782.262,614.894,977.311,614.894,977.311,614.894C1003.265,614.894,1024.5,593.659,1024.5,567.705C1024.5,567.705,1024.5,114.689,1024.5,114.689C1024.5,114.689,1024.5,114.689,1024.5,114.689M983.678,955.65C983.678,955.65,771.72,904.082,771.72,904.082C754.902,900.011,751.155,886.669,763.39,874.435C763.39,874.435,808.619,830.262,808.619,830.262C812.416,825.934,807.911,820.177,804.337,817.738C775.857,798.296,730.659,769.769,668.184,737.174C328.06,559.721,47.684,570.606,43.469,570.798C20.963,571.94,1.719,554.602,0.555,532.058C-0.606,509.502,16.735,490.271,39.291,489.11C40.949,489.025,47.691,488.72,59.026,488.72C131.719,488.72,392.845,501.263,706.02,664.654C780.123,703.314,831.484,736.658,861.474,757.767C865.715,760.753,873.105,765.9,879.925,758.956C879.925,758.956,929.395,709.49,929.395,709.49C941.63,697.255,954.905,701.021,958.907,717.855C958.907,717.855,1006.993,932.443,1006.993,932.443C1010.988,949.28,1000.493,959.721,983.678,955.65C983.678,955.65,983.678,955.65,983.678,955.65" class="zozo-progression"/><glyph unicode="&#x0053;" d="M640,1024C640,1024,640,768,640,768C640,768,896,768,896,768C896,768,640,1024,640,1024M640,704C604.736,704,576,732.736,576,768C576,768,576,1024,576,1024C576,1024,192,1024,192,1024C156.736,1024,128,995.264,128,960C128,960,128,64,128,64C128,28.672,156.736,0,192,0C192,0,832,0,832,0C867.328,0,896,28.672,896,64C896,64,896,704,896,704C896,704,640,704,640,704C640,704,640,704,640,704M352,828.032C352,828.032,352,864,352,864C352,881.664,366.336,896,384,896C401.664,896,416,881.664,416,864C416,864,416,827.968,416,827.968C436.032,823.424,454.72,814.976,470.144,802.432C483.904,791.296,485.952,771.136,474.752,757.44C463.552,743.68,443.392,741.696,429.76,752.832C417.664,762.624,401.408,768,384,768C349.312,768,320,746.048,320,720C320,693.952,349.312,672,384,672C454.592,672,512,621.76,512,560C512,507.968,471.04,464.512,416,451.968C416,451.968,416,416,416,416C416,398.336,401.664,384,384,384C366.336,384,352,398.336,352,416C352,416,352,452.032,352,452.032C331.968,456.576,313.28,465.024,297.856,477.568C284.096,488.768,282.048,508.928,293.248,522.624C304.448,536.448,324.544,538.368,338.24,527.232C350.336,517.376,366.592,512,384,512C418.688,512,448,533.952,448,560C448,586.048,418.688,608,384,608C313.408,608,256,658.24,256,720C256,772.032,296.96,815.488,352,828.032C352,828.032,352,828.032,352,828.032M736,128C736,128,288,128,288,128C270.336,128,256,142.336,256,160C256,177.664,270.336,192,288,192C288,192,736,192,736,192C753.664,192,768,177.664,768,160C768,142.336,753.664,128,736,128C736,128,736,128,736,128M736,256C736,256,288,256,288,256C270.336,256,256,270.336,256,288C256,305.664,270.336,320,288,320C288,320,736,320,736,320C753.664,320,768,305.664,768,288C768,270.336,753.664,256,736,256C736,256,736,256,736,256M736,384C736,384,608,384,608,384C590.336,384,576,398.336,576,416C576,433.664,590.336,448,608,448C608,448,736,448,736,448C753.664,448,768,433.664,768,416C768,398.336,753.664,384,736,384C736,384,736,384,736,384M736,512C736,512,608,512,608,512C590.336,512,576,526.336,576,544C576,561.664,590.336,576,608,576C608,576,736,576,736,576C753.664,576,768,561.728,768,544C768,526.336,753.664,512,736,512C736,512,736,512,736,512" class="zozo-invoice"/><glyph unicode="&#x0054;" d="M1004.077,551.432C938.211,575.086,897.699,642.116,902.789,695.046C902.789,703.748,897.575,711.834,890.983,717.546C884.391,723.23,874.167,725.69,865.611,724.314C765.239,709.588,673.332,783.017,664.226,886.237C663.406,895.553,658.308,903.933,650.398,908.943C642.518,913.923,632.702,915.007,624.002,911.755C542.644,881.961,465.77,935.833,435.097,1006.029C429.355,1019.155,415.117,1026.391,401.083,1023.285C170.137,971.751,0.5,748.687,0.5,511.998C0.5,230.779,231.279,0,512.498,0C793.717,0,1024.497,230.779,1024.497,511.998C1023.663,529.866,1023.539,544.46,1004.077,551.432C1004.077,551.432,1004.077,551.432,1004.077,551.432M210.999,479.74C194.431,479.74,180.999,493.172,180.999,509.74C180.999,526.312,194.431,539.74,210.999,539.74C227.567,539.74,240.999,526.312,240.999,509.74C240.999,493.172,227.565,479.74,210.999,479.74C210.999,479.74,210.999,479.74,210.999,479.74M332.499,241.999C282.871,241.999,242.499,282.371,242.499,331.999C242.499,381.627,282.871,421.999,332.499,421.999C382.127,421.999,422.499,381.627,422.499,331.999C422.499,282.371,382.129,241.999,332.499,241.999C332.499,241.999,332.499,241.999,332.499,241.999M362.499,601.998C329.423,601.998,302.499,628.922,302.499,661.998C302.499,695.074,329.423,721.998,362.499,721.998C395.575,721.998,422.499,695.074,422.499,661.998C422.499,628.922,395.575,601.998,362.499,601.998C362.499,601.998,362.499,601.998,362.499,601.998M602.498,181.999C569.422,181.999,542.498,208.923,542.498,241.999C542.498,275.075,569.422,301.999,602.498,301.999C635.574,301.999,662.498,275.075,662.498,241.999C662.498,208.923,635.574,181.999,602.498,181.999C602.498,181.999,602.498,181.999,602.498,181.999M632.498,421.999C582.87,421.999,542.498,462.37,542.498,511.998C542.498,561.626,582.87,601.998,632.498,601.998C682.126,601.998,722.498,561.626,722.498,511.998C722.498,462.37,682.128,421.999,632.498,421.999C632.498,421.999,632.498,421.999,632.498,421.999M810.997,359.741C794.429,359.741,780.997,373.173,780.997,389.741C780.997,406.313,794.429,419.741,810.997,419.741C827.565,419.741,840.997,406.313,840.997,389.741C840.997,373.173,827.563,359.741,810.997,359.741C810.997,359.741,810.997,359.741,810.997,359.741" class="zozo-cookie"/><glyph unicode="&#x0055;" d="M654.706,558.84C614.523,581.046,571.802,597.965,529.504,615.519C504.971,625.67,481.496,637.514,460.77,654.01C419.952,686.58,427.777,739.452,475.574,760.39C489.109,766.311,503.279,768.215,517.661,769.061C573.071,772.022,625.732,761.87,675.855,737.76C700.811,725.705,709.059,729.512,717.519,755.525C726.401,783.019,733.803,810.936,742.051,838.641C747.55,857.252,740.782,869.518,723.229,877.343C691.082,891.513,658.09,901.665,623.406,907.164C578.147,914.143,578.147,914.354,577.935,959.825C577.724,1023.906,577.724,1023.906,513.431,1023.906C504.125,1023.906,494.82,1024.117,485.514,1023.906C455.483,1023.06,450.407,1017.773,449.561,987.53C449.138,973.994,449.561,960.459,449.349,946.712C449.138,906.529,448.926,907.164,410.435,893.205C317.38,859.367,259.854,795.92,253.721,694.405C248.222,604.521,295.173,543.824,368.983,499.622C414.454,472.34,464.788,456.267,513.008,434.907C531.83,426.658,549.807,417.141,565.457,404.029C611.774,365.749,603.314,302.091,548.327,277.981C518.93,265.08,487.841,261.908,455.906,265.926C406.628,272.059,359.466,284.96,315.053,308.013C289.04,321.548,281.426,317.953,272.544,289.824C264.93,265.503,258.162,240.97,251.395,216.437C242.301,183.445,245.685,175.62,277.197,160.181C317.38,140.724,360.312,130.784,404.091,123.805C438.352,118.306,439.409,116.826,439.832,81.295C440.044,65.222,440.044,48.937,440.255,32.864C440.467,12.561,450.195,0.718,471.133,0.295C494.82,-0.128,518.718,-0.128,542.405,0.506C561.862,0.929,571.802,11.504,571.802,31.172C571.802,53.167,572.859,75.374,572.014,97.369C570.956,119.787,580.685,131.207,602.257,137.129C651.957,150.664,694.255,177.312,726.824,217.072C817.342,327.047,782.869,487.991,654.706,558.84C654.706,558.84,654.706,558.84,654.706,558.84" class="zozo-dollar-symbol"/><glyph unicode="&#x0056;" d="M761.454,631.867C761.454,631.867,554.775,941.885,554.775,941.885C545.379,951.28,531.289,960.674,517.197,960.674C503.106,960.674,489.014,955.977,479.619,941.885C479.619,941.885,272.94,631.867,272.94,631.867C272.94,631.867,47.472,631.867,47.472,631.867C19.289,631.867,0.5,613.078,0.5,584.894C0.5,580.197,0.5,575.5,0.5,570.803C0.5,570.803,117.931,133.959,117.931,133.959C127.326,96.381,164.904,63.5,207.179,63.5C207.179,63.5,817.821,63.5,817.821,63.5C860.096,63.5,897.674,91.683,907.069,133.959C907.069,133.959,1024.5,570.803,1024.5,570.803C1024.5,575.5,1024.5,580.197,1024.5,584.894C1024.5,613.078,1005.711,631.867,977.528,631.867C977.528,631.867,761.454,631.867,761.454,631.867C761.454,631.867,761.454,631.867,761.454,631.867M376.28,631.867C376.28,631.867,517.197,838.546,517.197,838.546C517.197,838.546,658.115,631.867,658.115,631.867C658.115,631.867,376.28,631.867,376.28,631.867C376.28,631.867,376.28,631.867,376.28,631.867M517.197,256.087C465.528,256.087,423.252,298.362,423.252,350.032C423.252,401.702,465.528,443.977,517.197,443.977C568.867,443.977,611.142,401.702,611.142,350.032C611.142,298.362,568.867,256.087,517.197,256.087C517.197,256.087,517.197,256.087,517.197,256.087" class="zozo-shopping-basket"/><glyph unicode="&#x0057;" d="M954.541,451.688C974.646,482.055,984.686,515.482,984.686,551.993C984.686,594.253,969.113,630.959,937.943,662.168C906.757,693.345,869.832,708.93,827.171,708.93C827.171,708.93,718.863,708.93,718.863,708.93C738.55,749.541,748.411,788.93,748.411,827.077C748.411,875.079,741.212,913.228,726.866,941.537C712.505,969.854,691.579,990.668,664.09,1004.007C636.594,1017.34,605.63,1024,571.171,1024C550.238,1024,531.784,1016.411,515.785,1001.227C498.148,983.999,485.429,961.84,477.638,934.762C469.842,907.694,463.583,881.741,458.869,856.92C454.155,832.101,446.866,814.563,437.024,804.308C416.917,782.565,394.972,756.302,371.177,725.537C329.742,671.8,301.637,640.002,286.875,630.153C286.875,630.153,118.267,630.153,118.267,630.153C96.524,630.153,77.958,622.449,62.573,607.077C47.195,591.69,39.5,573.127,39.5,551.381C39.5,551.381,39.5,157.551,39.5,157.551C39.5,135.806,47.186,117.248,62.573,101.861C77.966,86.474,96.524,78.776,118.267,78.776C118.267,78.776,295.481,78.776,295.481,78.776C304.508,78.776,332.809,70.572,380.399,54.162C430.862,36.518,475.271,23.086,513.625,13.852C551.984,4.619,590.855,0,630.242,0C630.242,0,687.456,0,687.456,0C687.456,0,709.621,0,709.621,0C767.462,0,814.022,16.523,849.307,49.551C884.579,82.58,902.022,127.603,901.617,184.626C926.231,216.217,938.536,252.729,938.536,294.159C938.536,303.179,937.93,311.998,936.693,320.622C952.276,348.098,960.087,377.637,960.087,409.228C960.08,423.999,958.237,438.159,954.541,451.688C954.541,451.688,954.541,451.688,954.541,451.688M185.343,169.235C177.55,161.446,168.32,157.536,157.654,157.536C146.985,157.536,137.753,161.444,129.957,169.235C122.166,177.022,118.267,186.256,118.267,196.931C118.267,207.596,122.157,216.823,129.957,224.621C137.762,232.417,146.985,236.314,157.654,236.314C168.32,236.314,177.55,232.417,185.343,224.621C193.139,216.825,197.038,207.598,197.038,196.931C197.038,186.256,193.139,177.022,185.343,169.235C185.343,169.235,185.343,169.235,185.343,169.235M892.717,501.505C883.895,482.637,872.918,472.996,859.792,472.591C865.944,465.614,871.076,455.861,875.179,443.36C879.279,430.844,881.316,419.464,881.316,409.202C881.316,380.909,870.459,356.493,848.714,335.987C856.107,322.866,859.794,308.705,859.794,293.534C859.794,278.354,856.21,263.277,849.026,248.306C841.856,233.348,832.105,222.576,819.802,216.015C821.852,203.71,822.869,192.22,822.869,181.555C822.869,113.048,783.483,78.793,704.707,78.793C704.707,78.793,630.27,78.793,630.27,78.793C576.516,78.793,506.375,93.757,419.805,123.712C417.751,124.531,411.811,126.693,401.959,130.174C392.107,133.655,384.829,136.222,380.108,137.858C375.388,139.511,368.215,141.869,358.568,144.938C348.923,148.022,341.138,150.281,335.185,151.71C329.24,153.141,322.466,154.475,314.884,155.708C307.297,156.939,300.833,157.551,295.501,157.551C295.501,157.551,275.809,157.551,275.809,157.551C275.809,157.551,275.809,551.366,275.809,551.366C275.809,551.366,295.501,551.366,295.501,551.366C302.064,551.366,309.344,553.218,317.345,556.901C325.343,560.595,333.553,566.132,341.961,573.519C350.373,580.905,358.264,588.186,365.653,595.37C373.039,602.547,381.242,611.571,390.271,622.439C399.295,633.314,406.371,642.028,411.503,648.594C416.629,655.157,423.088,663.571,430.884,673.826C438.675,684.079,443.398,690.235,445.038,692.289C467.598,720.181,483.392,738.846,492.417,748.287C509.237,765.922,521.441,788.383,529.03,815.665C536.627,842.951,542.882,868.695,547.787,892.895C552.706,917.097,560.51,934.538,571.19,945.205C610.564,945.205,636.827,935.569,649.951,916.285C663.072,897.005,669.637,867.259,669.637,827.056C669.637,802.853,659.783,769.933,640.088,728.296C620.401,686.655,610.564,653.937,610.564,630.144C610.564,630.144,827.165,630.144,827.165,630.144C847.699,630.144,865.946,622.251,881.938,606.448C897.944,590.656,905.955,572.301,905.955,551.373C905.949,537.016,901.537,520.398,892.717,501.505C892.717,501.505,892.717,501.505,892.717,501.505" class="zozo-thumbs-up-line"/><glyph unicode="&#x0058;" d="M988.798,457.617C1012.263,484.494,1024,516.277,1024,552.975C1024,586.254,1011.824,615.05,987.554,639.382C963.234,663.713,934.439,675.871,901.16,675.871C901.16,675.871,723.888,675.871,723.888,675.871C725.592,681.843,727.3,686.963,729.004,691.229C730.692,695.494,733.063,700.193,736.038,705.313C739.015,710.435,741.156,714.277,742.431,716.832C750.109,731.331,755.986,743.286,760.043,752.664C764.094,762.061,768.127,774.856,772.193,791.07C776.252,807.275,778.27,823.495,778.27,839.709C778.27,849.944,778.147,858.271,777.945,864.667C777.745,871.066,776.658,880.67,774.755,893.471C772.823,906.266,770.258,916.934,767.066,925.464C763.861,933.995,758.737,943.603,751.709,954.262C744.666,964.941,736.137,973.569,726.101,980.186C716.067,986.799,703.272,992.344,687.7,996.821C672.112,1001.302,654.522,1003.541,634.883,1003.541C623.791,1003.541,614.2,999.486,606.085,991.378C597.553,982.847,590.288,972.181,584.321,959.386C578.345,946.584,574.182,935.49,571.833,926.1C569.486,916.715,566.816,903.698,563.842,887.063C559.988,869.134,557.121,856.236,555.189,848.343C553.273,840.45,549.529,830.105,543.988,817.308C538.435,804.502,531.829,794.269,524.147,786.585C510.07,772.507,488.526,746.906,459.506,709.789C438.594,682.486,417.05,656.674,394.865,632.353C372.675,608.027,356.463,595.442,346.226,594.588C335.567,593.736,326.392,589.363,318.71,581.466C311.028,573.573,307.188,564.291,307.188,553.627C307.188,553.627,307.188,143.39,307.188,143.39C307.188,132.296,311.239,122.807,319.347,114.914C327.45,107.013,337.051,102.855,348.145,102.426C363.076,101.998,396.783,92.622,449.266,74.258C482.115,63.183,507.817,54.743,526.378,48.991C544.934,43.239,570.871,37.048,604.126,30.426C637.411,23.815,668.126,20.5,696.278,20.5C696.278,20.5,707.162,20.5,707.162,20.5C707.162,20.5,755.805,20.5,755.805,20.5C755.805,20.5,778.839,20.5,778.839,20.5C835.599,21.352,877.607,37.998,904.923,70.416C929.662,99.86,940.11,138.474,936.283,186.261C952.921,202.046,964.449,222.09,970.84,246.416C978.083,272.428,978.083,297.391,970.84,321.28C990.463,347.307,999.638,376.533,998.349,408.96C998.403,422.627,995.211,438.836,988.798,457.617C988.798,457.617,988.798,457.617,988.798,457.617M225.282,593.936C225.282,593.936,40.968,593.936,40.968,593.936C29.867,593.936,20.266,589.881,12.161,581.773C4.055,573.669,0,564.069,0,552.975C0,552.975,0,143.361,0,143.361C0,132.282,4.055,122.677,12.163,114.563C20.275,106.468,29.876,102.411,40.97,102.411C40.97,102.411,225.282,102.411,225.282,102.411C236.374,102.411,245.97,106.468,254.08,114.563C262.186,122.677,266.239,132.28,266.239,143.361C266.239,143.361,266.239,552.975,266.239,552.975C266.239,564.069,262.183,573.667,254.08,581.773C245.972,589.883,236.376,593.936,225.282,593.936C225.282,593.936,225.282,593.936,225.282,593.936M151.679,196.175C143.573,188.282,133.974,184.337,122.881,184.337C111.359,184.337,101.65,188.282,93.762,196.175C85.869,204.068,81.924,213.772,81.924,225.294C81.924,236.385,85.867,245.988,93.762,254.092C101.653,262.2,111.359,266.259,122.881,266.259C133.974,266.259,143.573,262.2,151.679,254.092C159.787,245.991,163.842,236.387,163.842,225.294C163.842,213.772,159.796,204.07,151.679,196.175C151.679,196.175,151.679,196.175,151.679,196.175" class="zozo-thumbs-up"/><glyph unicode="&#x0059;" d="M811.161,1024C811.161,1024,213.834,1024,213.834,1024C202.058,1024,192.5,1014.442,192.5,1002.666C192.5,1002.666,192.5,21.343,192.5,21.343C192.5,12.725,197.706,4.917,205.684,1.631C213.662,-1.697,222.836,0.181,228.938,6.239C228.938,6.239,512.497,289.842,512.497,289.842C512.497,289.842,796.056,6.283,796.056,6.283C800.152,2.187,805.614,0.011,811.159,0.011C813.889,0.011,816.663,0.523,819.309,1.633C827.287,4.919,832.493,12.727,832.493,21.345C832.493,21.345,832.493,1002.666,832.493,1002.666C832.493,1014.442,822.937,1024,811.161,1024C811.161,1024,811.161,1024,811.161,1024M727.918,710.019C727.918,710.019,615.066,628.014,615.066,628.014C615.066,628.014,658.159,495.366,658.159,495.366C661.017,486.576,657.903,476.934,650.393,471.516C646.639,468.786,642.243,467.42,637.849,467.42C633.455,467.42,629.059,468.786,625.305,471.516C625.305,471.516,512.497,553.477,512.497,553.477C512.497,553.477,399.644,471.516,399.644,471.516C392.134,466.054,382.066,466.054,374.556,471.516C367.09,476.934,363.932,486.578,366.79,495.366C366.79,495.366,409.884,628.014,409.884,628.014C409.884,628.014,297.075,710.019,297.075,710.019C289.565,715.437,286.451,725.081,289.309,733.827C292.167,742.617,300.359,748.589,309.619,748.589C309.619,748.589,449.137,748.589,449.137,748.589C449.137,748.589,492.231,881.238,492.231,881.238C497.949,898.815,527.088,898.815,532.806,881.238C532.806,881.238,575.9,748.589,575.9,748.589C575.9,748.589,715.418,748.589,715.418,748.589C724.676,748.589,732.868,742.615,735.728,733.827C738.542,725.081,735.428,715.437,727.918,710.019C727.918,710.019,727.918,710.019,727.918,710.019" class="zozo-bookmark"/><glyph unicode="&#x005a;" d="M811.533,366.14C752.636,366.14,700.118,338.073,666.523,294.698C666.523,294.698,385.221,451.827,385.221,451.827C391.812,470.751,395.427,491.163,395.427,512.213C395.427,533.475,391.812,553.674,385.008,572.811C385.008,572.811,666.098,729.728,666.098,729.728C699.48,686.14,752.211,657.86,811.321,657.86C912.105,657.86,994.39,739.934,994.39,840.93C994.39,941.927,912.317,1024,811.321,1024C710.324,1024,628.251,941.927,628.251,840.93C628.251,819.668,631.865,799.256,638.669,780.332C638.669,780.332,357.792,623.415,357.792,623.415C324.41,667.216,271.679,695.282,212.57,695.282C111.786,695.282,29.5,613.209,29.5,512.213C29.5,411.216,111.786,329.143,212.782,329.143C271.892,329.143,324.623,357.422,358.218,401.223C358.218,401.223,639.307,244.093,639.307,244.093C632.503,224.957,628.676,204.332,628.676,183.07C628.676,82.286,710.749,0,811.746,0C912.743,0,994.816,82.073,994.816,183.07C994.816,284.066,912.53,366.14,811.533,366.14C811.533,366.14,811.533,366.14,811.533,366.14M811.533,966.379C880.849,966.379,937.194,910.033,937.194,840.718C937.194,771.402,880.849,715.056,811.533,715.056C742.218,715.056,685.872,771.402,685.872,840.718C685.872,910.033,742.43,966.379,811.533,966.379C811.533,966.379,811.533,966.379,811.533,966.379M212.782,386.551C143.467,386.551,87.121,442.897,87.121,512.213C87.121,581.528,143.467,637.874,212.782,637.874C282.098,637.874,338.444,581.528,338.444,512.213C338.444,442.897,281.885,386.551,212.782,386.551C212.782,386.551,212.782,386.551,212.782,386.551M811.533,57.621C742.218,57.621,685.872,113.967,685.872,183.282C685.872,252.598,742.218,308.944,811.533,308.944C880.849,308.944,937.194,252.598,937.194,183.282C937.194,113.967,880.849,57.621,811.533,57.621C811.533,57.621,811.533,57.621,811.533,57.621" class="zozo-share-line"/><glyph unicode="&#x0061;" d="M848.659,359.683C798.642,359.683,753.655,338.641,721.713,305.016C721.713,305.016,348.495,487.785,348.495,487.785C349.778,496.328,350.662,505.04,350.662,514.004C350.662,522.715,349.82,531.216,348.6,539.569C348.6,539.569,721.271,720.298,721.271,720.298C753.234,686.441,798.411,665.189,848.659,665.189C945.514,665.189,1024,743.696,1024,840.531C1024,937.386,945.514,1015.872,848.659,1015.872C751.803,1015.872,673.317,937.386,673.317,840.531C673.317,831.819,674.159,823.339,675.379,814.965C675.379,814.965,302.75,634.237,302.75,634.237C270.787,668.093,225.61,689.345,175.362,689.345C78.486,689.345,0,610.838,0,514.004C0,417.148,78.486,338.662,175.341,338.662C225.358,338.662,270.345,359.704,302.287,393.287C302.287,393.287,675.484,210.539,675.484,210.539C674.18,201.996,673.296,193.284,673.296,184.341C673.296,87.465,751.782,9,848.638,9C945.493,9,1023.979,87.465,1023.979,184.341C1024,281.197,945.514,359.683,848.659,359.683C848.659,359.683,848.659,359.683,848.659,359.683" class="zozo-share"/><glyph unicode="&#x0062;" d="M922.1,1024C922.1,1024,102.9,1024,102.9,1024C46.58,1024,0.5,977.92,0.5,921.6C0.5,921.6,0.5,0,0.5,0C0.5,0,205.3,204.8,205.3,204.8C205.3,204.8,922.1,204.8,922.1,204.8C978.42,204.8,1024.5,250.88,1024.5,307.2C1024.5,307.2,1024.5,921.6,1024.5,921.6C1024.5,977.92,978.42,1024,922.1,1024C922.1,1024,922.1,1024,922.1,1024M358.9,563.2C358.9,563.2,256.5,563.2,256.5,563.2C256.5,563.2,256.5,665.6,256.5,665.6C256.5,665.6,358.9,665.6,358.9,665.6C358.9,665.6,358.9,563.2,358.9,563.2C358.9,563.2,358.9,563.2,358.9,563.2M563.7,563.2C563.7,563.2,461.3,563.2,461.3,563.2C461.3,563.2,461.3,665.6,461.3,665.6C461.3,665.6,563.7,665.6,563.7,665.6C563.7,665.6,563.7,563.2,563.7,563.2C563.7,563.2,563.7,563.2,563.7,563.2M768.5,563.2C768.5,563.2,666.1,563.2,666.1,563.2C666.1,563.2,666.1,665.6,666.1,665.6C666.1,665.6,768.5,665.6,768.5,665.6C768.5,665.6,768.5,563.2,768.5,563.2C768.5,563.2,768.5,563.2,768.5,563.2" class="zozo-speech-bubble"/><glyph unicode="&#x0063;" d="M948.116,927.982C948.116,927.982,245.482,927.982,245.482,927.982C203.324,927.982,169.597,893.318,169.597,852.097C169.597,852.097,169.597,415.527,169.597,415.527C169.597,373.369,204.26,339.643,245.482,339.643C245.482,339.643,729.831,339.643,729.831,339.643C729.831,339.643,839.442,229.095,839.442,229.095C844.126,224.411,849.747,221.6,856.305,221.6C869.421,221.6,880.663,231.906,880.663,245.958C880.663,245.958,880.663,339.643,880.663,339.643C880.663,339.643,948.116,339.643,948.116,339.643C990.274,339.643,1024,374.306,1024,415.527C1024,415.527,1024,852.097,1024,852.097C1024,894.255,989.337,927.982,948.116,927.982C948.116,927.982,948.116,927.982,948.116,927.982M353.219,552.307C314.808,552.307,282.955,584.159,282.955,622.57C282.955,660.981,314.808,692.834,353.219,692.834C391.63,692.834,423.482,660.981,423.482,622.57C423.482,584.159,392.566,552.307,353.219,552.307C353.219,552.307,353.219,552.307,353.219,552.307M599.609,552.307C561.198,552.307,529.346,584.159,529.346,622.57C529.346,660.981,561.198,692.834,599.609,692.834C638.02,692.834,669.873,660.981,669.873,622.57C669.873,584.159,638.02,552.307,599.609,552.307C599.609,552.307,599.609,552.307,599.609,552.307M845.063,552.307C806.652,552.307,774.799,584.159,774.799,622.57C774.799,660.981,806.652,692.834,845.063,692.834C883.473,692.834,915.326,660.981,915.326,622.57C915.326,584.159,883.473,552.307,845.063,552.307C845.063,552.307,845.063,552.307,845.063,552.307M126.502,413.654C126.502,413.654,126.502,562.612,126.502,562.612C126.502,562.612,49.681,562.612,49.681,562.612C22.513,562.612,0.028,540.128,0.028,512.959C0.028,512.959,0.028,226.285,0.028,226.285C-0.909,197.242,21.576,174.758,49.681,174.758C49.681,174.758,93.713,174.758,93.713,174.758C93.713,174.758,93.713,112.926,93.713,112.926C93.713,104.495,101.208,97,109.639,97C114.323,97,118.071,98.874,120.881,101.684C120.881,101.684,193.018,173.821,193.018,173.821C193.018,173.821,511.546,173.821,511.546,173.821C538.714,173.821,561.198,196.306,561.198,223.474C561.198,223.474,561.198,294.674,561.198,294.674C561.198,294.674,245.482,294.674,245.482,294.674C179.903,294.674,126.502,348.075,126.502,413.654C126.502,413.654,126.502,413.654,126.502,413.654" class="zozo-chat"/><glyph unicode="&#x0064;" d="M390.817,122.211C390.814,121.944,390.797,121.678,390.797,121.411C390.797,54.357,445.154,0,512.207,0C579.261,0,633.618,54.357,633.618,121.411C633.618,121.678,633.6,121.944,633.598,122.211C633.598,122.211,390.817,122.211,390.817,122.211C390.817,122.211,390.817,122.211,390.817,122.211M899.843,273.974C899.843,273.974,790.573,434.489,790.573,434.489C790.573,483.625,790.573,603.689,790.573,634.748C790.573,769.802,694.391,882.378,566.792,907.748C566.792,907.748,566.792,969.415,566.792,969.415C566.79,999.56,542.352,1024,512.205,1024C482.058,1024,457.62,999.56,457.62,969.415C457.62,969.415,457.62,907.746,457.62,907.746C330.021,882.374,233.839,769.798,233.839,634.746C233.839,581.876,233.839,465.131,233.839,434.487C233.839,434.487,124.57,273.972,124.57,273.972C113.06,257.064,111.842,235.179,121.406,217.1C130.97,199.02,149.745,187.713,170.199,187.713C170.199,187.713,854.211,187.713,854.211,187.713C874.665,187.713,893.44,199.022,903.004,217.1C912.57,235.182,911.351,257.067,899.843,273.974C899.843,273.974,899.843,273.974,899.843,273.974" class="zozo-bell"/><glyph unicode="&#x0065;" d="M505.655,1023.953C222.909,1020.169,-3.216,787.867,0.546,505.11C4.331,222.476,236.611,-3.716,519.345,0.046C802.035,3.853,1028.204,236.155,1024.442,518.89C1020.658,801.546,788.367,1027.727,505.655,1023.953C505.655,1023.953,505.655,1023.953,505.655,1023.953M504.141,200.349C504.141,200.349,501.314,200.393,501.314,200.393C457.772,201.684,427.074,233.762,428.31,276.659C429.523,318.821,460.966,349.429,503.072,349.429C503.072,349.429,505.599,349.385,505.599,349.385C550.354,348.06,580.707,316.305,579.449,272.173C578.203,229.889,547.249,200.349,504.141,200.349C504.141,200.349,504.141,200.349,504.141,200.349M687.292,563.856C677.052,549.309,654.535,531.244,626.163,509.139C626.163,509.139,594.92,487.569,594.92,487.569C577.769,474.234,567.417,461.69,563.533,449.347C560.472,439.63,558.969,437.059,558.702,417.291C558.702,417.291,558.658,412.272,558.658,412.272C558.658,412.272,439.362,412.272,439.362,412.272C439.362,412.272,439.707,422.367,439.707,422.367C441.165,463.861,442.189,488.27,459.386,508.438C486.366,540.115,545.88,578.437,548.407,580.062C556.932,586.484,564.123,593.797,569.476,601.611C581.998,618.874,587.541,632.464,587.541,645.821C587.541,664.353,582.043,681.494,571.168,696.753C560.717,711.479,540.86,718.936,512.144,718.936C483.661,718.936,464.161,709.898,452.496,691.355C440.497,672.289,434.431,652.265,434.431,631.807C434.431,631.807,434.431,626.721,434.431,626.721C434.431,626.721,311.429,626.721,311.429,626.721C311.429,626.721,311.652,632.03,311.652,632.03C314.824,707.372,341.715,761.621,391.546,793.276C422.856,813.433,461.812,823.651,507.269,823.651C566.772,823.651,617.003,809.193,656.549,780.676C696.619,751.782,716.943,708.507,716.943,652.054C716.943,620.477,706.97,590.814,687.292,563.856C687.292,563.856,687.292,563.856,687.292,563.856" class="zozo-question-mark-circle"/><glyph unicode="&#x0066;" d="M745.12,953.81C680.256,1000.596,598.791,1024,500.748,1024C426.121,1024,363.191,1007.514,312.013,974.62C230.856,923.068,187.7,835.561,182.5,712.112C182.5,712.112,370.586,712.112,370.586,712.112C370.586,748.043,381.077,782.688,402.057,816.071C423.061,849.431,458.662,866.088,508.883,866.088C559.947,866.088,595.127,852.548,614.367,825.492C633.629,798.401,643.255,768.398,643.255,735.493C643.255,706.901,628.896,680.698,611.613,656.873C602.102,642.992,589.563,630.226,573.987,618.541C573.987,618.541,471.985,553.119,427.214,500.576C401.238,470.072,398.906,424.436,396.619,358.934C396.459,354.281,398.246,344.655,414.55,344.655C430.854,344.655,546.328,344.655,560.834,344.655C575.341,344.655,578.367,355.475,578.572,360.151C579.596,384.022,582.281,396.185,586.616,409.952C594.842,435.962,617.2,458.683,642.288,478.185C642.288,478.185,694.068,513.922,694.068,513.922C740.797,550.32,778.093,580.209,794.534,603.613C822.66,642.139,842.412,689.573,842.412,745.893C842.412,837.711,809.962,907.025,745.12,953.81C745.12,953.81,745.12,953.81,745.12,953.81M497.722,231.912C432.902,233.847,379.415,189.007,377.367,118.692C375.342,48.4,426.212,1.979,491.032,0.067C558.718,-1.947,610.76,41.448,612.785,111.729C614.81,182.044,565.408,229.91,497.722,231.912C497.722,231.912,497.722,231.912,497.722,231.912" class="zozo-question-mark"/><glyph unicode="&#x0067;" d="M512.367,540.385C588.083,540.385,648.948,601.6,648.948,676.833C649.035,752.286,588.083,813.325,512.367,813.325C437.177,813.325,376.14,752.286,376.14,676.833C376.14,601.51,437.179,540.385,512.367,540.385C512.367,540.385,512.367,540.385,512.367,540.385M621.922,518.149C621.922,518.149,403.165,518.149,403.165,518.149C364.055,518.149,332.019,482.289,332.019,438.301C332.019,438.301,332.019,218.577,332.019,218.577C332.019,216.161,333.25,214.008,333.382,211.502C333.382,211.502,691.575,211.502,691.575,211.502C691.837,214.006,692.85,216.159,692.85,218.577C692.85,218.577,692.85,438.301,692.85,438.301C692.98,482.289,660.945,518.149,621.922,518.149C621.922,518.149,621.922,518.149,621.922,518.149M879.746,475.259C940.521,475.259,989.255,524.169,989.255,584.593C989.255,645.017,940.521,694.015,879.746,694.015C819.409,694.015,770.587,645.017,770.587,584.593C770.456,524.211,819.411,475.259,879.746,475.259C879.746,475.259,879.746,475.259,879.746,475.259M967.591,457.417C967.591,457.417,792.296,457.417,792.296,457.417C760.83,457.417,735.123,428.677,735.123,393.301C735.123,393.301,735.123,217.257,735.123,217.257C735.123,215.367,736.045,213.566,736.178,211.5C736.178,211.5,1023.489,211.5,1023.489,211.5C1023.621,213.566,1024.499,215.367,1024.499,217.257C1024.499,217.257,1024.499,393.301,1024.499,393.301C1024.632,428.677,998.969,457.417,967.591,457.417C967.591,457.417,967.591,457.417,967.591,457.417M145.166,475.259C205.853,475.259,254.633,524.169,254.633,584.593C254.633,645.017,205.853,694.015,145.166,694.015C84.786,694.015,35.964,645.017,35.964,584.593C35.964,524.169,84.786,475.259,145.166,475.259C145.166,475.259,145.166,475.259,145.166,475.259C145.166,475.259,145.166,475.259,145.166,475.259M232.967,457.417C232.967,457.417,57.496,457.417,57.496,457.417C26.12,457.417,0.5,428.677,0.5,393.301C0.5,393.301,0.5,217.257,0.5,217.257C0.5,215.367,1.423,213.566,1.598,211.5C1.598,211.5,288.909,211.5,288.909,211.5C289.042,213.566,289.877,215.367,289.877,217.257C289.877,217.257,289.877,393.301,289.877,393.301C289.965,428.677,264.299,457.417,232.967,457.417C232.967,457.417,232.967,457.417,232.967,457.417" class="zozo-group"/><glyph unicode="&#x0068;" d="M988.626,131.548C988.626,131.548,735.007,265.674,735.007,265.674C735.007,265.674,723.293,302.273,723.293,302.273C719.787,314.535,714.237,326.795,702.822,330.018C699.196,331.039,694.608,337.659,694.016,342.28C694.016,342.28,687.246,413.447,687.246,413.447C686.874,419.541,689.318,425.01,692.536,428.851C711.967,452.134,722.558,479.101,727.039,509.933C729.292,525.435,737.358,539.731,741.502,554.999C741.502,554.999,757.763,640.096,757.763,640.096C759.46,651.27,759.131,659.883,746.642,664.213C743.197,665.414,740.199,671.121,740.199,679.679C740.199,679.679,740.364,840.244,740.364,840.244C737.712,879.106,717.135,909.157,687.95,930.073C632.202,970.03,532.372,951.502,564.953,1016.679C566.877,1020.515,566.263,1027.18,552.869,1022.253C502.893,1003.865,369.777,955.278,336.336,930.073C306.407,907.517,286.58,879.106,283.923,840.244C283.923,840.244,284.088,679.679,284.088,679.679C284.088,672.613,281.092,665.414,277.643,664.213C265.151,659.885,264.824,651.27,266.521,640.096C266.521,640.096,282.787,554.999,282.787,554.999C286.921,539.731,294.992,525.432,297.248,509.933C301.724,479.101,312.322,452.134,331.748,428.851C334.964,425.01,337.411,419.541,337.038,413.447C337.038,413.447,330.268,342.28,330.268,342.28C329.674,337.659,325.079,331.039,321.46,330.018C310.043,326.795,304.49,314.535,300.986,302.273C300.986,302.273,289.268,265.674,289.268,265.674C289.268,265.674,35.639,131.548,35.639,131.548C29.094,128.089,25,121.291,25,113.891C25,113.891,25,19.975,25,19.975C25,8.944,33.947,0,44.98,0C44.98,0,979.288,0,979.288,0C990.321,0,999.267,8.944,999.267,19.975C999.267,19.975,999.267,113.891,999.267,113.891C999.263,121.291,995.169,128.089,988.626,131.548C988.626,131.548,988.626,131.548,988.626,131.548" class="zozo-user-picture"/><glyph unicode="&#x0069;" d="M700.371,450.733C712.25,445.673,724.094,440.467,736.091,435.785C741.851,433.505,744.018,429.73,745.219,423.764C747.911,410.13,745.744,397.055,742.528,383.921C740.131,373.945,735.684,370.376,725.56,368.738C722.575,368.243,719.565,366.488,717.108,364.586C714.888,362.86,712.868,360.87,710.818,358.909C735.272,348.496,760.579,336.911,785.822,323.954C797.931,317.723,808.609,309.943,817.59,300.697C817.59,300.697,825.87,292.127,825.87,292.127C825.87,292.127,825.87,251.083,825.87,251.083C891.922,251.083,957.973,251.083,1024,251.083C1018.411,288.529,995.595,310.727,961.106,323.483C938.638,331.764,916.611,341.358,894.76,351.246C888.529,354.144,883.906,360.345,878.322,364.615C875.866,366.488,872.822,368.273,869.929,368.797C859.752,370.405,855.305,374.004,852.903,384.01C849.775,397.114,847.461,410.219,850.211,423.823C851.412,429.789,853.574,433.564,859.34,435.844C871.39,440.496,883.151,445.732,895.059,450.792C903.982,454.567,904.477,457.635,901.29,466.852C891.054,495.782,883.475,525.27,881.019,556.22C879.411,575.761,879.935,595.739,875.258,614.932C875.258,614.932,874.528,614.932,874.528,614.932C874.116,616.717,873.915,618.501,873.444,620.256C864.816,654.103,828.542,672.502,798.029,674.463C797.735,674.493,797.504,674.552,797.299,674.552C794.96,674.699,792.734,674.346,790.455,674.199C777.615,672.414,767.08,664.281,754.853,660.712C738.969,656.03,729.198,641.406,723.261,625.669C714.868,603.289,716.417,579.419,714.515,556.254C712.059,525.275,704.45,495.846,694.243,466.916C690.919,457.64,691.508,454.478,700.371,450.733C700.371,450.733,700.371,450.733,700.371,450.733M211.646,291.774C211.646,291.774,220.946,300.52,220.946,300.52C229.398,308.448,239.492,315.468,252.744,322.518C252.744,322.518,262.044,327.548,262.044,327.548C275.236,334.656,288.37,341.765,301.945,348.231C309.083,351.624,316.515,354.639,323.825,357.737C322.276,362.007,320.751,366.277,319.437,370.606C317.711,376.107,316.628,381.637,309.49,383.127C307.705,383.51,305.514,386.549,305.22,388.628C303.788,399.247,302.705,409.954,301.974,420.69C301.798,422.911,302.97,425.897,304.548,427.593C313.878,438.035,319.089,450.144,321.192,464.043C322.276,470.946,326.193,477.471,328.183,484.256C330.875,493.443,333.066,502.802,335.174,512.132C335.934,515.495,335.498,519.123,336.022,522.574C336.782,527.604,336.635,531.497,330.61,533.428C328.914,533.982,327.565,537.934,327.536,540.39C327.212,555.308,327.418,570.226,327.36,585.145C327.242,594.273,327.36,603.514,326.717,612.613C325.399,630.135,315.133,642.45,302.264,653.069C283.423,668.541,261.544,683.17,237.82,681.268C237.237,681.239,236.766,681.091,236.212,681.003C235.658,681.091,235.217,681.239,234.604,681.268C210.852,683.17,188.942,668.541,170.19,653.069C157.321,642.45,147.051,630.135,145.737,612.613C145.094,603.485,145.124,594.273,145.094,585.145C145.036,570.197,145.212,555.279,144.918,540.39C144.859,537.934,143.486,533.953,141.82,533.428C135.794,531.497,135.647,527.609,136.437,522.574C136.991,519.123,136.525,515.495,137.285,512.132C139.363,502.802,141.555,493.468,144.246,484.256C146.237,477.471,150.124,470.946,151.237,464.043C153.375,450.149,158.522,438.035,167.911,427.593C169.46,425.808,170.602,422.911,170.455,420.69C169.725,409.954,168.641,399.306,167.18,388.628C166.886,386.579,164.695,383.48,162.91,383.127C155.801,381.637,154.689,376.136,152.992,370.606C150.772,363.292,148.369,355.982,145.531,348.903C144.653,346.765,142.457,344.456,140.265,343.432C127.627,337.931,114.728,332.901,102.001,327.518C88.456,321.871,74.768,316.404,61.575,310.085C47.858,303.56,34.661,296.191,21.385,289.053C13.487,284.842,6.143,280.189,0,274.429C0,274.429,0,251,0,251C70.527,251,140.996,251,211.469,251C211.469,251,211.469,291.75,211.469,291.75C211.469,291.75,211.646,291.75,211.646,291.75C211.646,291.75,211.646,291.774,211.646,291.774C211.646,291.774,211.646,291.774,211.646,291.774M772.389,297.775C725.879,321.586,677.785,341.363,629.108,360.051C625.451,361.453,621.122,364.204,619.632,367.425C615.681,376.2,612.935,385.476,610.097,394.717C608.312,400.595,606.792,406.184,600.267,408.963C598.541,409.694,597.022,413.145,597.022,415.312C597.375,436.668,592.457,459.101,608.283,477.765C608.807,478.378,608.895,479.197,609.307,479.844C617.818,498.566,619.372,519.922,631.305,537.355C631.599,537.767,631.658,538.321,631.717,538.845C633.089,552.126,634.585,565.378,635.668,578.659C635.786,580.325,634.349,583.223,632.918,583.747C626.334,586.086,626.687,591.351,626.745,596.646C626.745,622.595,626.745,648.539,626.687,674.488C626.687,689.583,622.24,703.011,610.861,713.247C597.904,724.89,584.535,736.181,571.225,747.471C564.758,752.943,564.263,757.095,570.259,763.12C572.95,765.753,576.372,767.626,579.387,769.846C578.775,770.871,578.069,771.866,577.456,772.891C573.392,772.891,569.293,773.445,565.405,772.803C550.664,770.435,535.804,768.356,521.352,764.905C493.706,758.379,466.826,749.722,444.328,731.234C428.998,718.537,416.771,703.795,415.163,682.969C414.433,672.027,414.521,661.06,414.433,650.117C414.345,632.302,414.58,614.427,414.198,596.646C414.139,593.719,412.442,588.983,410.481,588.336C403.285,585.998,403.079,581.404,404.015,575.379C404.687,571.256,404.192,566.927,405.069,562.887C407.555,551.744,410.217,540.596,413.408,529.629C415.806,521.466,420.458,513.745,421.747,505.435C424.321,488.85,430.464,474.368,441.696,461.876C443.51,459.827,444.941,456.346,444.74,453.596C443.863,440.81,442.573,428.059,440.818,415.361C440.436,412.876,437.833,409.189,435.7,408.723C427.219,406.909,425.9,400.414,423.909,393.805C421.218,385.059,418.409,376.342,414.957,367.885C413.933,365.253,411.271,362.473,408.697,361.36C393.573,354.747,378.218,348.692,363.006,342.378C346.798,335.593,330.507,329.067,314.741,321.552C298.415,313.742,282.619,305.026,266.706,296.451C257.347,291.48,248.542,285.921,241.198,278.959C241.198,278.959,241.198,251.025,241.198,251.025C426.277,251.025,611.361,251.025,796.47,251.025C796.47,251.025,796.47,280.131,796.47,280.131C789.651,287.185,781.664,293.034,772.389,297.775C772.389,297.775,772.389,297.775,772.389,297.775" class="zozo-facebook-group"/><glyph unicode="&#x006a;" d="M675.68,239.483C616.603,269.83,555.326,294.93,493.394,318.725C488.803,320.493,483.281,323.935,481.388,328.095C476.359,339.202,472.855,351.053,469.225,362.816C466.958,370.293,464.883,377.334,456.719,380.906C454.545,381.837,452.471,386.21,452.528,388.94C452.965,416.152,446.694,444.694,466.802,468.401C467.452,469.113,467.67,470.231,468.107,471.069C478.965,494.9,480.92,522.049,496.093,544.201C496.468,544.695,496.587,545.444,496.618,546.125C498.418,563.004,500.217,579.852,501.647,596.762C501.803,598.874,499.941,602.597,498.173,603.216C489.765,606.226,490.259,612.898,490.29,619.658C490.353,652.673,490.29,685.687,490.259,718.665C490.228,737.843,484.581,754.904,470.119,767.966C453.615,782.828,436.642,797.164,419.7,811.527C411.51,818.448,410.767,823.783,418.426,831.417C421.806,834.765,426.185,837.189,430.126,840.043C429.289,841.348,428.421,842.617,427.584,843.891C422.462,843.891,417.22,844.572,412.223,843.798C393.482,840.756,374.679,838.119,356.188,833.777C321.036,825.463,286.872,814.48,258.324,790.93C238.684,774.794,223.11,756.053,221.217,729.497C220.224,715.629,220.349,701.636,220.224,687.705C220.099,665.054,220.411,642.34,219.943,619.694C219.85,616.002,217.739,609.95,215.258,609.112C206.044,606.133,205.794,600.267,207.037,592.608C207.874,587.397,207.193,581.87,208.373,576.753C211.571,562.541,214.92,548.392,219.018,534.43C222.091,524.036,227.983,514.202,229.631,503.652C232.891,482.555,240.676,464.184,254.918,448.236C257.274,445.599,259.078,441.132,258.798,437.716C257.742,421.456,256.036,405.169,253.863,389.065C253.426,385.929,250.108,381.244,247.378,380.657C236.583,378.421,234.904,370.044,232.361,361.698C228.981,350.59,225.32,339.514,221.067,328.745C219.699,325.454,216.381,321.918,213.064,320.462C193.86,312.053,174.308,304.389,154.98,296.292C134.409,287.665,113.619,279.382,93.548,269.793C72.82,259.929,52.78,248.754,32.484,237.897C20.571,231.506,9.402,224.429,0,215.651C0,215.651,0,180.094,0,180.094C235.47,180.094,470.936,180.094,706.344,180.094C706.344,180.094,706.344,217.138,706.344,217.138C697.676,225.952,687.437,233.461,675.68,239.483C675.68,239.483,675.68,239.483,675.68,239.483M944.622,271.254C916.355,281.712,888.556,293.781,861.095,306.255C853.274,309.823,847.508,317.643,840.368,323.072C837.232,325.459,833.478,327.664,829.724,328.251C816.973,330.269,811.295,334.798,808.347,347.398C804.343,363.902,801.519,380.35,805.029,397.567C806.516,405.045,809.246,409.855,816.542,412.678C831.622,418.575,846.546,425.153,861.501,431.481C872.639,436.198,873.383,440.139,869.322,451.709C856.415,488.197,846.858,525.242,843.753,564.185C841.829,588.791,842.417,613.954,836.494,638.154C836.494,638.154,835.563,638.154,835.563,638.154C835.007,640.39,834.788,642.652,834.164,644.857C823.338,687.486,777.568,710.668,739.156,713.086C738.813,713.117,738.506,713.18,738.225,713.211C735.277,713.367,732.453,712.961,729.629,712.774C713.431,710.538,700.182,700.299,684.795,695.801C664.749,689.904,652.524,671.507,644.989,651.648C634.376,623.475,636.363,593.408,634.007,564.211C630.809,525.242,621.288,488.161,608.439,451.735C604.372,440.16,605.09,436.224,616.26,431.507C631.183,425.148,646.107,418.601,661.219,412.704C668.478,409.849,671.208,405.102,672.731,397.593C676.142,380.371,673.381,363.96,669.414,347.424C666.372,334.824,660.756,330.295,648.005,328.277C644.282,327.69,640.465,325.454,637.361,323.098C630.258,317.669,624.455,309.849,616.634,306.281C613.374,304.794,609.994,303.395,606.77,301.908C633.544,290.208,660.881,277.645,688.217,263.652C702.647,256.206,715.303,246.929,725.917,236.009C725.917,236.009,733.55,228.095,733.55,228.095C733.55,228.095,733.55,180,733.55,180C735.287,180,736.899,180,738.641,180C738.828,180,739.078,180,739.291,180C834.237,180,929.054,180,1024,180C1016.793,227.289,988.094,255.244,944.622,271.254C944.622,271.254,944.622,271.254,944.622,271.254" class="zozo-man-and-woman-avatar"/><glyph unicode="&#x006b;" d="M592.605,118.432C592.605,236.018,686.681,331.818,803.473,335.216C771.613,348.551,739.635,361.346,707.386,373.769C701.606,375.966,694.828,380.242,692.495,385.33C686.259,399.139,681.813,413.793,677.453,428.295C674.613,437.54,672.112,446.244,661.886,450.69C659.148,451.839,656.63,457.248,656.714,460.628C657.238,494.28,649.463,529.655,674.292,558.896C675.137,559.808,675.357,561.11,675.915,562.208C689.402,591.669,691.786,625.337,710.614,652.735C711.121,653.377,711.273,654.273,711.307,655.101C713.471,675.975,715.719,696.883,717.476,717.791C717.713,720.394,715.313,724.991,713.2,725.785C702.822,729.487,703.397,737.769,703.448,746.118C703.482,786.97,703.448,827.822,703.397,868.657C703.363,892.371,696.434,913.532,678.416,929.69C657.931,948.045,637.006,965.809,616.031,983.573C605.89,992.159,605.062,998.751,614.493,1008.182C618.617,1012.323,624.043,1015.332,628.944,1018.881C627.93,1020.47,626.781,1022.076,625.767,1023.665C619.412,1023.665,612.938,1024.493,606.803,1023.546C583.681,1019.794,560.272,1016.515,537.539,1011.157C493.949,1000.881,451.626,987.258,416.284,958.119C392.047,938.192,372.779,914.968,370.362,882.077C369.111,864.905,369.297,847.564,369.145,830.357C368.959,802.334,369.348,774.226,368.79,746.203C368.672,741.622,366.035,734.118,362.993,733.104C351.601,729.419,351.313,722.168,352.851,712.686C353.882,706.213,353.003,699.418,354.508,693.063C358.463,675.502,362.57,658.025,367.624,640.701C371.427,627.805,378.728,615.686,380.723,602.621C384.83,576.474,394.464,553.741,412.059,534.05C414.983,530.822,417.18,525.312,416.876,521.018C415.524,500.871,413.445,480.758,410.757,460.831C410.233,456.943,406.092,451.112,402.746,450.47C389.393,447.681,387.297,437.354,384.103,426.892C379.911,413.15,375.365,399.528,370.091,386.141C368.435,382.017,364.328,377.707,360.221,375.899C336.406,365.538,312.304,356.039,288.371,345.965C262.866,335.3,237.158,325.075,212.244,313.176C186.621,300.939,161.792,287.18,136.727,273.693C121.954,265.816,108.162,257.044,96.5,246.16C96.5,246.16,96.5,89.817,96.5,89.817C262.595,89.817,428.606,89.817,594.65,89.817C593.484,99.197,592.605,108.679,592.605,118.432C592.605,118.432,592.605,118.432,592.605,118.432M928.176,138.156C928.176,138.156,829.485,138.156,829.485,138.156C829.485,138.156,829.485,236.863,829.485,236.863C829.485,236.863,790.003,236.863,790.003,236.863C790.003,236.863,790.003,138.156,790.003,138.156C790.003,138.156,691.295,138.156,691.295,138.156C691.295,138.156,691.295,98.69,691.295,98.69C691.295,98.69,790.003,98.69,790.003,98.69C790.003,98.69,790.003,0,790.003,0C790.003,0,829.485,0,829.485,0C829.485,0,829.485,98.69,829.485,98.69C829.485,98.69,928.176,98.69,928.176,98.69C928.176,98.69,928.176,138.156,928.176,138.156" class="zozo-add-user"/><glyph unicode="&#x006c;" d="M805.582,461.574C805.582,461.574,757.166,461.574,757.166,461.574C744.28,440.151,730.67,419.534,716.564,400.309C716.564,400.309,767.366,400.309,767.366,400.309C767.366,400.309,925.867,75.757,925.867,75.757C925.867,75.757,98.05,75.757,98.05,75.757C98.05,75.757,256.597,400.309,256.597,400.309C256.597,400.309,307.398,400.309,307.398,400.309C293.292,419.669,279.683,440.287,266.751,461.574C266.751,461.574,218.336,461.574,218.336,461.574C218.336,461.574,0,14.5,0,14.5C0,14.5,1024,14.5,1024,14.5C1024,14.5,805.582,461.574,805.582,461.574C805.582,461.574,805.582,461.574,805.582,461.574M511.974,1010.423C352.17,1010.423,222.634,880.849,222.634,721.083C222.634,470.373,511.974,238.887,511.974,238.887C511.974,238.887,801.314,470.373,801.314,721.083C801.269,880.849,671.777,1010.423,511.974,1010.423C511.974,1010.423,511.974,1010.423,511.974,1010.423M511.974,605.254C448.15,605.254,396.227,657.087,396.227,721.046C396.227,784.914,448.15,836.747,511.974,836.747C575.752,836.747,627.72,784.914,627.72,721.046C627.675,657.132,575.752,605.254,511.974,605.254C511.974,605.254,511.974,605.254,511.974,605.254" class="zozo-placeholder-on-a-map"/><glyph unicode="&#x006d;" d="M881.687,197.338C830.88,216.111,781.036,237.793,731.646,260.24C717.571,266.593,707.171,280.708,694.425,290.417C688.805,294.668,682.005,298.709,675.293,299.759C652.398,303.4,642.282,311.529,636.825,334.146C629.706,363.8,624.648,393.448,630.838,424.316C633.509,437.787,638.445,446.404,651.55,451.503C678.737,462.099,705.435,473.916,732.296,485.279C752.364,493.774,753.619,500.852,746.371,521.605C723.313,587.138,706.079,653.728,700.459,723.749C696.981,767.966,698.072,813.153,687.354,856.597C687.354,856.597,685.693,856.597,685.693,856.597C684.845,860.604,684.276,864.644,683.225,868.611C663.801,945.201,581.522,986.828,512.546,991.201C511.976,991.242,511.454,991.364,510.885,991.405C505.583,991.689,500.525,990.957,495.393,990.639C466.227,986.632,442.437,968.225,414.891,960.137C378.85,949.54,356.802,916.489,343.29,880.807C324.239,830.197,327.717,776.237,323.548,723.769C317.928,653.741,300.816,587.158,277.636,521.625C270.354,500.832,271.649,493.795,291.71,485.3C318.572,473.93,345.27,462.12,372.457,451.523C385.562,446.425,390.457,437.808,393.169,424.336C399.318,393.509,394.26,363.902,387.223,334.166C381.725,311.556,371.609,303.42,348.755,299.78C342.036,298.729,335.243,294.722,329.623,290.437C316.917,280.729,306.483,266.613,292.368,260.261C242.971,237.766,193.174,216.125,142.326,197.359C64.238,168.491,12.705,118.328,0,33.5C170.51,33.5,340.945,33.5,511.454,33.5C511.861,33.5,512.261,33.5,512.546,33.5C683.055,33.5,853.49,33.5,1024,33.5C1011.342,118.328,959.722,168.491,881.687,197.338C881.687,197.338,881.687,197.338,881.687,197.338" class="zozo-female-user-picture"/><glyph unicode="&#x006e;" d="M604.758,99.763C604.758,219.791,700.774,317.583,819.958,321.047C787.485,334.627,754.809,347.72,721.849,360.374C715.967,362.63,709.08,366.985,706.656,372.178C700.369,386.278,695.818,401.228,691.388,416.057C688.484,425.443,685.911,434.35,675.472,438.86C672.69,440.069,670.151,445.552,670.191,449.016C670.759,483.428,662.777,519.487,688.201,549.347C689.045,550.272,689.247,551.602,689.855,552.73C703.556,582.786,706.014,617.157,725.191,645.119C725.718,645.761,725.873,646.693,725.914,647.537C728.129,668.848,730.384,690.166,732.241,711.518C732.444,714.179,730.067,718.851,727.852,719.655C717.257,723.443,717.858,731.904,717.899,740.406C717.939,782.11,717.899,823.808,717.858,865.471C717.818,889.686,710.727,911.281,692.353,927.764C671.522,946.503,650.089,964.634,628.69,982.764C618.338,991.509,617.406,998.235,627.116,1007.864C631.31,1012.098,636.867,1015.157,641.864,1018.783C640.858,1020.397,639.649,1022.045,638.643,1023.658C632.154,1023.658,625.55,1024.503,619.303,1023.537C595.608,1019.708,571.799,1016.366,548.549,1010.882C504.07,1000.409,460.914,986.505,424.855,956.767C400.113,936.421,380.456,912.726,377.998,879.166C376.708,861.636,376.911,843.951,376.749,826.38C376.546,797.776,376.952,769.084,376.384,740.48C376.263,735.807,373.562,728.15,370.462,727.103C358.821,723.355,358.537,715.941,360.11,706.271C361.157,699.66,360.273,692.732,361.805,686.243C365.837,668.315,370.023,650.461,375.182,632.816C379.052,619.642,386.506,607.271,388.559,593.934C392.753,567.262,402.578,544.053,420.553,523.95C423.538,520.648,425.793,515.043,425.469,510.654C424.098,490.106,421.965,469.558,419.223,449.212C418.696,445.262,414.469,439.299,411.046,438.617C397.425,435.795,395.292,425.24,392.03,414.645C387.762,400.546,383.123,386.642,377.728,373.022C376.033,368.829,371.847,364.399,367.653,362.589C343.357,351.954,318.737,342.325,294.32,332.047C268.288,321.128,242.061,310.695,216.637,298.568C190.491,286.035,165.142,272.016,139.556,258.275C124.484,250.219,110.385,241.231,98.5,230.15C98.5,230.15,98.5,70.592,98.5,70.592C268.011,70.592,437.435,70.592,606.906,70.592C605.609,80.14,604.758,89.769,604.758,99.763C604.758,99.763,604.758,99.763,604.758,99.763M897.566,199.486C897.566,199.486,826.366,128.253,826.366,128.253C826.366,128.253,755.133,199.486,755.133,199.486C755.133,199.486,726.643,170.956,726.643,170.956C726.643,170.956,797.884,99.763,797.884,99.763C797.884,99.763,726.643,28.53,726.643,28.53C726.643,28.53,755.133,0,755.133,0C755.133,0,826.366,71.274,826.366,71.274C826.366,71.274,897.566,0,897.566,0C897.566,0,926.089,28.53,926.089,28.53C926.089,28.53,854.856,99.763,854.856,99.763C854.856,99.763,926.089,170.956,926.089,170.956C926.089,170.956,897.566,199.486,897.566,199.486" class="zozo-delete-contact"/><glyph unicode="&#x006f;" d="M620.863,119.924C620.863,212.261,678.222,291.333,759.049,323.872C752.652,329.707,746.575,336.064,739.822,341.263C734.309,345.423,727.67,349.336,721.192,350.414C698.769,353.931,688.934,361.883,683.696,383.83C676.742,412.812,671.824,441.552,677.86,471.611C680.379,484.762,685.176,493.116,697.925,498.114C724.387,508.464,750.447,519.94,776.595,531.014C796.144,539.288,797.423,546.161,790.349,566.393C767.846,630.191,751.057,695.027,745.657,763.266C742.181,806.316,743.299,850.33,732.869,892.663C732.869,892.663,731.227,892.663,731.227,892.663C730.39,896.542,729.948,900.501,728.829,904.333C709.923,978.924,629.779,1019.495,562.659,1023.735C562.096,1023.776,561.58,1023.896,561.018,1023.936C555.859,1024.218,551.022,1023.494,545.944,1023.179C517.599,1019.26,494.42,1001.393,467.515,993.481C432.458,983.211,410.953,951.028,397.843,916.211C379.252,866.925,382.769,814.355,378.616,763.273C373.182,695.04,356.468,630.198,333.924,566.4C326.89,546.175,328.089,539.254,347.678,531.021C373.738,519.947,399.846,508.478,426.388,498.121C439.097,493.123,443.894,484.809,446.453,471.618C452.449,441.558,447.531,412.778,440.618,383.837C435.298,361.85,425.511,353.938,403.122,350.421C396.563,349.423,390.011,345.463,384.451,341.27C372.057,331.797,361.988,318.083,348.315,311.846C300.147,289.98,251.657,268.917,202.209,250.608C126.219,222.504,75.854,173.66,63.5,91.03C229.549,91.03,395.565,91.03,561.614,91.03C562.016,91.03,562.411,91.03,562.693,91.03C582.837,91.03,602.989,91.03,623.134,91.03C621.707,100.496,620.863,110.09,620.863,119.924C620.863,119.924,620.863,119.924,620.863,119.924M960.645,139.908C960.645,139.908,860.705,139.908,860.705,139.908C860.705,139.908,860.705,239.842,860.705,239.842C860.705,239.842,820.737,239.842,820.737,239.842C820.737,239.842,820.737,139.908,820.737,139.908C820.737,139.908,720.796,139.908,720.796,139.908C720.796,139.908,720.796,99.934,720.796,99.934C720.796,99.934,820.737,99.934,820.737,99.934C820.737,99.934,820.737,0,820.737,0C820.737,0,860.705,0,860.705,0C860.705,0,860.705,99.934,860.705,99.934C860.705,99.934,960.645,99.934,960.645,99.934C960.645,99.934,960.645,139.908,960.645,139.908" class="zozo-add-female-user"/><glyph unicode="&#x0070;" d="M512.355,727.52C469.411,727.52,434.468,692.591,434.468,649.632C434.468,649.632,434.468,595.445,434.468,595.445C434.468,595.445,590.215,595.445,590.215,595.445C590.215,595.445,590.215,649.604,590.215,649.604C590.158,692.576,555.314,727.52,512.355,727.52C512.355,727.52,512.355,727.52,512.355,727.52M962.182,898.125C913.724,931.04,840.993,1016.571,840.993,1016.571C840.993,1016.571,773.963,974.584,682.717,974.584C591.472,974.584,512.298,1024,512.298,1024C512.298,1024,433.239,974.584,341.979,974.584C250.748,974.584,183.703,1016.571,183.703,1016.571C183.703,1016.571,110.958,931.069,62.5,898.125C82.429,869.624,189.846,702.52,115.23,482.813C43.985,272.893,56.771,220.449,157.974,142.475C269.063,56.93,373.28,119.918,512.298,0C651.359,119.918,755.576,56.859,866.708,142.475C967.897,220.449,980.754,272.893,909.424,482.813C834.836,702.491,942.239,869.596,962.182,898.125C962.182,898.125,962.182,898.125,962.182,898.125M712.561,328.466C712.561,310.166,697.489,295.108,679.189,295.108C679.189,295.108,345.508,295.108,345.508,295.108C327.165,295.108,312.136,310.166,312.136,328.466C312.136,328.466,312.136,562.073,312.136,562.073C312.136,580.416,327.165,595.445,345.508,595.445C345.508,595.445,376.08,595.445,376.08,595.445C376.08,595.445,376.08,649.604,376.08,649.604C376.08,724.749,437.21,785.893,512.37,785.893C587.5,785.893,648.645,724.763,648.645,649.604C648.645,649.604,648.645,595.445,648.645,595.445C648.645,595.445,679.217,595.445,679.217,595.445C697.518,595.445,712.59,580.416,712.59,562.073C712.59,562.073,712.59,328.466,712.59,328.466C712.59,328.466,712.561,328.466,712.561,328.466" class="zozo-shield-with-padlock"/><glyph unicode="&#x0071;" d="M633.914,101.068C633.914,195.322,692.51,276.019,774.989,309.248C768.455,315.188,762.253,321.687,755.387,326.998C749.727,331.261,742.948,335.244,736.327,336.362C713.458,339.944,703.412,348.068,698.084,370.465C690.955,400.025,685.941,429.411,692.109,460.089C694.729,473.542,699.603,482.05,712.584,487.151C739.699,497.704,766.219,509.426,792.932,520.73C812.866,529.168,814.141,536.191,806.978,556.859C783.987,621.972,766.83,688.168,761.31,757.824C757.798,801.78,758.916,846.714,748.364,889.919C748.364,889.919,746.669,889.919,746.669,889.919C745.831,893.885,745.324,897.921,744.154,901.834C724.866,977.989,643.103,1019.412,574.461,1023.744C573.92,1023.779,573.465,1023.902,572.784,1023.937C567.525,1024.216,562.581,1023.5,557.41,1023.168C528.496,1019.167,504.771,1000.928,477.394,992.856C441.615,982.357,419.654,949.529,406.219,913.976C387.281,863.661,390.827,809.974,386.617,757.824C381.131,688.168,364.027,621.972,341.019,556.859C333.821,536.191,335.061,529.133,355.048,520.73C381.673,509.426,408.35,497.704,435.412,487.151C448.393,482.05,453.285,473.542,455.906,460.089C462.02,429.411,456.989,400.008,449.948,370.465C444.515,348.033,434.521,339.944,411.67,336.362C405.014,335.314,398.287,331.296,392.609,326.998C379.978,317.354,369.67,303.36,355.729,296.983C306.549,274.673,257.055,253.132,206.582,234.456C128.943,205.769,77.579,155.908,65,71.542C234.465,71.542,403.948,71.542,573.5,71.542C573.832,71.542,574.217,71.542,574.549,71.542C595.112,71.542,615.675,71.542,636.237,71.542C634.805,81.186,633.914,91.022,633.914,101.068C633.914,101.068,633.914,101.068,633.914,101.068M930.513,202.03C930.513,202.03,858.377,129.929,858.377,129.929C858.377,129.929,786.24,202.03,786.24,202.03C786.24,202.03,757.396,173.151,757.396,173.151C757.396,173.151,829.533,101.068,829.533,101.068C829.533,101.068,757.396,28.914,757.396,28.914C757.396,28.914,786.24,0,786.24,0C786.24,0,858.377,72.224,858.377,72.224C858.377,72.224,930.513,0,930.513,0C930.513,0,959.357,28.914,959.357,28.914C959.357,28.914,887.221,101.068,887.221,101.068C887.221,101.068,959.357,173.151,959.357,173.151C959.357,173.151,930.513,202.03,930.513,202.03" class="zozo-delete-female-contact"/><glyph unicode="&#x0072;" d="M631.798,32.172C631.798,133.571,694.759,220.321,783.48,256.082C776.458,262.443,769.788,269.421,762.375,275.128C756.323,279.694,749.036,283.989,741.925,285.173C717.313,289.033,706.517,297.769,700.767,321.852C693.134,353.62,687.736,385.167,694.362,418.207C697.127,432.598,702.392,441.768,716.386,447.253C745.433,458.659,774.038,471.255,802.739,483.367C824.197,492.493,825.602,499.993,817.836,522.201C793.136,592.23,774.707,663.398,768.78,738.301C764.964,785.556,766.192,833.869,754.742,880.336C754.742,880.336,752.941,880.336,752.941,880.336C752.022,884.594,751.536,888.94,750.308,893.146C729.556,975.021,641.585,1019.555,567.909,1024.209C567.292,1024.254,566.726,1024.386,566.108,1024.43C560.446,1024.739,555.136,1023.945,549.562,1023.599C518.449,1019.297,493.006,999.685,463.474,991.001C424.992,979.728,401.387,944.401,386.996,906.184C366.59,852.084,370.451,794.38,365.891,738.309C359.928,663.412,341.58,592.237,316.835,522.209C309.114,500.008,310.43,492.412,331.932,483.374C360.538,471.263,389.195,458.673,418.33,447.261C432.28,441.775,437.545,432.605,440.354,418.214C446.935,385.174,441.538,353.583,433.949,321.86C428.11,297.725,417.367,289.041,392.791,285.18C385.592,284.04,378.4,279.738,372.296,275.135C358.692,264.781,347.64,249.684,332.631,242.882C279.759,218.836,226.533,195.76,172.256,175.663C88.844,144.814,33.56,91.199,20,0.5C202.266,0.5,384.496,0.5,566.806,0.5C567.204,0.5,567.637,0.5,567.946,0.5C590.058,0.5,612.178,0.5,634.29,0.5C632.717,10.847,631.798,21.377,631.798,32.172C631.798,32.172,631.798,32.172,631.798,32.172M741.491,54.108C741.491,54.108,741.491,10.229,741.491,10.229C741.491,10.229,1004.757,10.229,1004.757,10.229C1004.757,10.229,1004.757,54.108,1004.757,54.108C1004.757,54.108,741.491,54.108,741.491,54.108" class="zozo-delete-female-user"/><glyph unicode="&#x0073;" d="M600.243,31.331C600.243,160.246,703.367,265.279,831.376,268.999C796.455,283.584,761.403,297.647,726.046,311.238C719.729,313.661,712.288,318.339,709.728,323.916C702.889,339.059,698.044,355.117,693.243,371.043C690.124,381.125,687.397,390.691,676.192,395.536C673.204,396.834,670.477,402.723,670.52,406.443C671.13,443.403,662.6,482.088,689.82,514.203C690.726,515.196,690.987,516.625,691.596,517.836C706.399,550.118,708.995,587.033,729.636,617.066C730.159,617.755,730.325,618.756,730.369,619.663C732.791,642.552,735.214,665.449,737.165,688.381C737.382,691.239,734.786,696.258,732.45,697.121C721.071,701.189,721.716,710.277,721.76,719.408C721.804,764.2,721.76,808.985,721.716,853.734C721.673,879.741,714.058,902.935,694.323,920.639C671.906,940.765,648.929,960.238,625.946,979.711C614.828,989.103,613.87,996.327,624.256,1006.669C628.803,1011.217,634.729,1014.502,640.096,1018.397C638.971,1020.13,637.76,1021.9,636.636,1023.633C629.666,1023.633,622.573,1024.54,615.821,1023.503C590.459,1019.39,564.843,1015.8,539.915,1009.911C492.142,998.662,445.747,983.729,407.019,951.789C380.445,929.937,359.333,904.487,356.693,868.442C355.307,849.614,355.525,830.619,355.351,811.748C355.133,781.026,355.569,750.21,354.959,719.488C354.829,714.469,351.928,706.244,348.599,705.12C336.095,701.095,335.791,693.132,337.481,682.746C338.605,675.646,337.655,668.205,339.301,661.235C343.631,641.979,348.127,622.803,353.668,603.852C357.824,589.702,365.831,576.416,368.036,562.092C372.54,533.444,383.092,508.517,402.399,486.926C405.604,483.379,408.027,477.359,407.679,472.645C406.206,450.576,403.914,428.506,400.97,406.654C400.404,402.411,395.864,396.007,392.187,395.274C377.558,392.243,375.267,380.907,371.764,369.528C367.18,354.384,362.197,339.451,356.403,324.823C354.582,320.319,350.086,315.561,345.582,313.617C319.487,302.194,293.044,291.852,266.818,280.814C238.86,269.086,210.69,257.881,183.384,244.855C155.302,231.394,128.076,216.338,100.596,201.579C84.408,192.927,69.265,183.273,56.5,171.372C56.5,171.372,56.5,0,56.5,0C238.562,0,420.53,0,602.549,0C601.236,10.255,600.243,20.641,600.243,31.331C600.243,31.331,600.243,31.331,600.243,31.331M708.43,52.966C708.43,52.966,708.43,9.689,708.43,9.689C708.43,9.689,968.08,9.689,968.08,9.689C968.08,9.689,968.08,52.966,968.08,52.966C968.08,52.966,708.43,52.966,708.43,52.966" class="zozo-delete-user"/><glyph unicode="&#x0074;" d="M1004.992,781.014C992.334,793.683,977.329,800.012,959.992,800.012C959.992,800.012,64.005,800.012,64.005,800.012C46.66,800.012,31.666,793.683,18.998,781.014C6.329,768.332,0,753.337,0,736.004C0,718.673,6.329,703.679,18.998,691.007C18.998,691.007,466.993,243.012,466.993,243.012C479.675,230.343,494.67,224,512,224C529.33,224,544.339,230.343,556.997,243.012C556.997,243.012,1004.992,691.01,1004.992,691.01C1017.646,703.679,1024,718.673,1024,736.007C1024,753.337,1017.646,768.332,1004.992,781.014C1004.992,781.014,1004.992,781.014,1004.992,781.014" class="zozo-triangle-down"/><glyph unicode="&#x0075;" d="M19.008,242.998C31.666,230.329,46.671,224,64.008,224C64.008,224,959.995,224,959.995,224C977.34,224,992.334,230.329,1005.002,242.998C1017.671,255.68,1024,270.674,1024,288.008C1024,305.339,1017.671,320.333,1005.002,333.005C1005.002,333.005,557.007,781,557.007,781C544.325,793.669,529.33,800.012,512,800.012C494.67,800.012,479.661,793.669,467.003,781C467.003,781,19.008,333.002,19.008,333.002C6.354,320.333,0,305.339,0,288.005C0,270.674,6.354,255.68,19.008,242.998C19.008,242.998,19.008,242.998,19.008,242.998" class="zozo-triangle-up"/><glyph unicode="&#x0076;" d="M781.014,19.008C793.683,31.666,800.012,46.671,800.012,64.008C800.012,64.008,800.012,959.995,800.012,959.995C800.012,977.34,793.683,992.334,781.014,1005.002C768.332,1017.671,753.337,1024,736.004,1024C718.673,1024,703.679,1017.671,691.007,1005.002C691.007,1005.002,243.012,557.007,243.012,557.007C230.343,544.325,224,529.33,224,512C224,494.67,230.343,479.661,243.012,467.003C243.012,467.003,691.01,19.008,691.01,19.008C703.679,6.353,718.673,0,736.007,0C753.337,0,768.332,6.353,781.014,19.008C781.014,19.008,781.014,19.008,781.014,19.008" class="zozo-triangle-left"/><glyph unicode="&#x0077;" d="M242.998,1004.992C230.329,992.334,224,977.329,224,959.992C224,959.992,224,64.005,224,64.005C224,46.66,230.329,31.666,242.998,18.998C255.68,6.329,270.675,0,288.008,0C305.339,0,320.333,6.329,333.005,18.998C333.005,18.998,781,466.993,781,466.993C793.669,479.675,800.012,494.67,800.012,512C800.012,529.33,793.669,544.339,781,556.997C781,556.997,333.002,1004.992,333.002,1004.992C320.333,1017.646,305.339,1024,288.005,1024C270.675,1024,255.68,1017.646,242.998,1004.992C242.998,1004.992,242.998,1004.992,242.998,1004.992" class="zozo-triangle-right"/><glyph unicode="&#x0078;" d="M670.982,511.995C670.982,511.995,1018.221,859.245,1018.221,859.245C1026.557,867.581,1026.557,881.093,1018.221,889.429C1018.221,889.429,889.937,1017.745,889.937,1017.745C885.935,1021.748,880.491,1024,874.845,1024C869.188,1024,863.755,1021.748,859.753,1017.745C859.753,1017.745,512.492,670.485,512.492,670.485C512.492,670.485,165.231,1017.745,165.231,1017.745C157.226,1025.75,143.052,1025.75,135.047,1017.745C135.047,1017.745,6.752,889.429,6.752,889.429C-1.584,881.093,-1.584,867.581,6.752,859.245C6.752,859.245,354.002,511.995,354.002,511.995C354.002,511.995,6.752,164.745,6.752,164.745C-1.584,156.409,-1.584,142.896,6.752,134.56C6.752,134.56,135.047,6.255,135.047,6.255C139.049,2.252,144.482,0,150.139,0C155.796,0,161.229,2.252,165.231,6.255C165.231,6.255,512.492,353.515,512.492,353.515C512.492,353.515,859.753,6.255,859.753,6.255C863.755,2.252,869.188,0,874.845,0C880.491,0,885.935,2.252,889.937,6.255C889.937,6.255,1018.232,134.56,1018.232,134.56C1026.568,142.896,1026.568,156.419,1018.232,164.745C1018.232,164.745,670.982,511.995,670.982,511.995C670.982,511.995,670.982,511.995,670.982,511.995" class="zozo-cross-remove-sign"/></font>
</defs>
</svg>
